<svg xmlns="http://www.w3.org/2000/svg" viewBox="0 0 333.55 190.96"><defs><style>.cls-1{fill:#222;}.cls-2{fill:#777;}</style></defs><title>rgb_tall_tagline_png</title><g id="Layer_2" data-name="Layer 2"><g id="tall_tagline"><g id="outline"><g id="logo"><path class="cls-1" d="M213.55,15.38a9.87,9.87,0,0,0-3.15-3.66,14.7,14.7,0,0,0-5-2.26,21.37,21.37,0,0,0-6.28-.59,25,25,0,0,0-5.64.92,24.7,24.7,0,0,0-5.07,2.06,20.87,20.87,0,0,0-4.19,3,15.35,15.35,0,0,0-3,3.69l-16.73.68a7.26,7.26,0,0,0,0-1.05,7.87,7.87,0,0,0-.18-1,7.28,7.28,0,0,0-.32-.93,5.92,5.92,0,0,0-.44-.87L183.77,2.24,180.86,0,160.53,12.52a11.84,11.84,0,0,0-1.57-.7,13.48,13.48,0,0,0-1.77-.48,15.19,15.19,0,0,0-2-.26,16.75,16.75,0,0,0-2.13,0,22.4,22.4,0,0,0-5.82,1.09,25.11,25.11,0,0,0-5.35,2.49,21.59,21.59,0,0,0-4.4,3.57,15,15,0,0,0-2.91,4.37,9,9,0,0,0-.75,4.45,6.87,6.87,0,0,0,1.54,3.71,8.79,8.79,0,0,0,3.66,2.55,14.85,14.85,0,0,0,5.5.91,21.37,21.37,0,0,0,5.51-.82,24.25,24.25,0,0,0,5.22-2.13,22.88,22.88,0,0,0,4.44-3.15,17.24,17.24,0,0,0,3.19-3.84l1.69,0h0l15.24-.31c0,.32,0,.64.1.95a7.62,7.62,0,0,0,.21.92,7,7,0,0,0,.3.88,8.32,8.32,0,0,0,.41.85L147,49.46a13.17,13.17,0,0,0-1.59-.81,13.33,13.33,0,0,0-1.75-.6,16.48,16.48,0,0,0-1.93-.38,19.61,19.61,0,0,0-2.07-.14,21.17,21.17,0,0,0-6.52,1,25.38,25.38,0,0,0-11.23,7.27,20.45,20.45,0,0,0-3.56,5.57,14.44,14.44,0,0,0-1.19,5.86,10.42,10.42,0,0,0,1.43,5.09,10.31,10.31,0,0,0,3.86,3.72,14.15,14.15,0,0,0,6.08,1.67,20,20,0,0,0,5.93-.57,24.16,24.16,0,0,0,5.75-2.22,25.7,25.7,0,0,0,5.06-3.55,22.78,22.78,0,0,0,3.89-4.53l19.77,1c0,.22,0,.44.08.66s.06.44.1.65.09.43.14.65.11.42.17.63L142.58,88.14l6.17,9.7L176,78.52a16.46,16.46,0,0,0,1.92,1,19.47,19.47,0,0,0,2.11.76,20.85,20.85,0,0,0,2.3.54,21.51,21.51,0,0,0,2.46.28,24,24,0,0,0,8.28-1,24.4,24.4,0,0,0,7.28-3.55,21,21,0,0,0,5.34-5.48,16.16,16.16,0,0,0,2.57-6.69,13.23,13.23,0,0,0-.7-6.52A13.6,13.6,0,0,0,204,52.71a16.67,16.67,0,0,0-5.59-3.4,21.14,21.14,0,0,0-7.1-1.26,24.28,24.28,0,0,0-6.11.73,24.88,24.88,0,0,0-5.58,2.14,23.21,23.21,0,0,0-4.75,3.32,20,20,0,0,0-3.61,4.32l-19.39-.37c0-.29,0-.58,0-.86s-.06-.56-.11-.84-.1-.54-.16-.8-.14-.53-.23-.78l34.24-23.07a14.64,14.64,0,0,0,1.85.77,17.69,17.69,0,0,0,2.06.58,20.13,20.13,0,0,0,2.26.34,21.59,21.59,0,0,0,2.44.11,25.24,25.24,0,0,0,7.17-1.15,24.22,24.22,0,0,0,6.25-3,17.88,17.88,0,0,0,4.52-4.29,11.28,11.28,0,0,0,2.12-5A8.29,8.29,0,0,0,213.55,15.38Zm-57.14,6.54A6.81,6.81,0,0,1,155,24.21a10.47,10.47,0,0,1-2.27,1.93,12.49,12.49,0,0,1-2.84,1.33,11,11,0,0,1-3.08.54,7.48,7.48,0,0,1-2.7-.41,4.56,4.56,0,0,1-1.85-1.21,3.51,3.51,0,0,1-.83-1.81,4.4,4.4,0,0,1,.31-2.21,7.36,7.36,0,0,1,1.42-2.21,10.48,10.48,0,0,1,2.22-1.82,12.22,12.22,0,0,1,2.71-1.27,11.11,11.11,0,0,1,3-.54,7.56,7.56,0,0,1,2.65.33,4.52,4.52,0,0,1,1.9,1.11,3.38,3.38,0,0,1,1,1.74A4,4,0,0,1,156.41,21.92ZM142.63,62.2a9.52,9.52,0,0,1-1.69,3,11.94,11.94,0,0,1-2.66,2.39A12.58,12.58,0,0,1,135,69.1a10,10,0,0,1-3.48.47,7,7,0,0,1-3-.76,5,5,0,0,1-2.76-4.24,7,7,0,0,1,.51-2.92,9.87,9.87,0,0,1,1.75-2.83,13,13,0,0,1,2.58-2.25,12.64,12.64,0,0,1,3.11-1.47,10.18,10.18,0,0,1,3.31-.49,7.25,7.25,0,0,1,2.93.63,5.31,5.31,0,0,1,2,1.62,5,5,0,0,1,.95,2.39A6.59,6.59,0,0,1,142.63,62.2Zm36.09,1.21a8.5,8.5,0,0,1,1.45-3.09,10.41,10.41,0,0,1,2.55-2.44,12.07,12.07,0,0,1,7.1-2.14,10.36,10.36,0,0,1,3.57.7,8.19,8.19,0,0,1,2.75,1.77A6.55,6.55,0,0,1,198,64.05a8.27,8.27,0,0,1-1.34,3.24,10.69,10.69,0,0,1-2.62,2.62,12.34,12.34,0,0,1-3.52,1.7,11.83,11.83,0,0,1-4,.5,10,10,0,0,1-3.67-.84,8,8,0,0,1-2.69-2,6.48,6.48,0,0,1-1.45-2.72A6.73,6.73,0,0,1,178.72,63.41Zm26.65-43a5.75,5.75,0,0,1-1.1,2.45A9.25,9.25,0,0,1,202,25a11.93,11.93,0,0,1-3,1.44,12.55,12.55,0,0,1-3.47.58,10.29,10.29,0,0,1-3.24-.43,6.82,6.82,0,0,1-2.4-1.3,4.56,4.56,0,0,1-1.36-1.93,4.3,4.3,0,0,1-.11-2.37,6,6,0,0,1,1.18-2.36,9.6,9.6,0,0,1,2.18-1.95,12.31,12.31,0,0,1,2.88-1.36A12.55,12.55,0,0,1,198,14.7a10,10,0,0,1,3.16.34,7.15,7.15,0,0,1,2.45,1.17,4.75,4.75,0,0,1,1.5,1.86A4.19,4.19,0,0,1,205.37,20.44Z"/></g><g id="name"><path class="cls-2" d="M42.2,188.4l-.8,2.3H38.49l4.61-13.34h3.42l4.56,13.34h-3l-.76-2.3Zm2.56-7.76-1.86,5.52h3.7Z"/><path class="cls-2" d="M58,182.88h4.68v2.24H58v3.34h4.68v2.24H55.23V177.36h7.43v2.24H58Z"/><path class="cls-2" d="M70.9,190.7H68.15V177.36h4.13c3.3,0,5.08,1.46,5.08,4.2a3.84,3.84,0,0,1-3.16,4l3.68,5.12H74.56l-3.66-5.3Zm1.24-6.9c1.56,0,2.44-.76,2.44-2.1a2,2,0,0,0-2.2-2.08H70.9v4.18Z"/><path class="cls-2" d="M85.78,190.7H83V177.36h2.75Z"/><path class="cls-2" d="M93.69,188.4l-.8,2.3H90l4.61-13.34H98l4.56,13.34h-3l-.76-2.3Zm2.57-7.76-1.86,5.52h3.7Z"/><path class="cls-2" d="M114.4,188.44v2.26h-7.21V177.36h2.75v11.08Z"/><path class="cls-2" d="M131.35,190.7h-2.74V177.36h4.26c3.17,0,4.95,1.54,4.95,4.26s-1.82,4.5-4.77,4.5h-1.7Zm1.18-6.84c1.58,0,2.51-.76,2.51-2.1s-.95-2.14-2.45-2.14h-1.24v4.24Z"/><path class="cls-2" d="M145.57,190.7h-2.74V177.36h2.74V183h5.07v-5.64h2.74V190.7h-2.74v-5.46h-5.07Z"/><path class="cls-2" d="M170.4,179.34a6.95,6.95,0,1,1-12.09,4.76,7,7,0,0,1,12.09-4.76Zm-9.29,4.72a4.12,4.12,0,1,0,4.12-4.42A4.17,4.17,0,0,0,161.11,184.06Z"/><path class="cls-2" d="M182,190.7h-2.74V179.6h-3.18v-2.24h9.08v2.24H182Z"/><path class="cls-2" d="M200.5,179.34a6.95,6.95,0,1,1-12.09,4.76,7,7,0,0,1,12.09-4.76Zm-9.29,4.72a4.12,4.12,0,1,0,4.12-4.42A4.17,4.17,0,0,0,191.21,184.06Z"/><path class="cls-2" d="M220.81,183.22v.72a6.53,6.53,0,0,1-1.94,5A6.84,6.84,0,0,1,214,191a6.93,6.93,0,0,1,0-13.86,6.81,6.81,0,0,1,5.41,2.56l-2.07,1.62a4,4,0,0,0-3.28-1.66,4.21,4.21,0,0,0-4.12,4.44,4.26,4.26,0,0,0,4.18,4.42,3.94,3.94,0,0,0,3-1.34,3.67,3.67,0,0,0,.82-1.68h-3.72v-2.24Z"/><path class="cls-2" d="M229.13,190.7h-2.74V177.36h4.12c3.3,0,5.08,1.46,5.08,4.2a3.84,3.84,0,0,1-3.16,4l3.68,5.12h-3.32l-3.66-5.3Zm1.24-6.9c1.56,0,2.44-.76,2.44-2.1a2,2,0,0,0-2.2-2.08h-1.48v4.18Z"/><path class="cls-2" d="M243.61,188.4l-.8,2.3h-2.9l4.6-13.34h3.42l4.56,13.34h-3l-.76-2.3Zm2.56-7.76-1.86,5.52H248Z"/><path class="cls-2" d="M259.85,190.7h-2.74V177.36h4.26c3.16,0,4.94,1.54,4.94,4.26s-1.82,4.5-4.76,4.5h-1.7Zm1.18-6.84c1.58,0,2.5-.76,2.5-2.1s-.94-2.14-2.44-2.14h-1.24v4.24Z"/><path class="cls-2" d="M274.07,190.7h-2.74V177.36h2.74V183h5.06v-5.64h2.74V190.7h-2.74v-5.46h-5.06Z"/><path class="cls-2" d="M293.45,190.7h-2.74v-5.88l-4.46-7.46h3.26l2.58,4.62,2.54-4.62h3.2l-4.38,7.46Z"/><path class="cls-1" d="M0,119.77H6.08l8.12,23.37h.12l8.06-23.37h6.14v44.14H22.19V137.07h-.12l-6.26,19H12.65l-6.2-19H6.32v26.84H0Z"/><path class="cls-1" d="M34.72,119.77H41v6.33H34.72Zm0,12.71H41v31.43H34.72Z"/><path class="cls-1" d="M47,119.77h6.32v35.28c0,2.35.68,3,3.1,3.28v6c-5.83,0-9.42-1.49-9.42-8.81Z"/><path class="cls-1" d="M65.9,150.58v4.28A2.84,2.84,0,0,0,69,158c2.42,0,3-1.8,3.1-3.16h6.33a9.68,9.68,0,0,1-2.54,6.7A9.27,9.27,0,0,1,69,164.29a9,9,0,0,1-8.24-4.53,13.8,13.8,0,0,1-1.18-6.39V143a13.79,13.79,0,0,1,1.18-6.38A9,9,0,0,1,69,132.11c5.83,0,9.43,4.28,9.43,9.79v8.68Zm0-5h6.2V142c0-2.36-1.17-3.6-3.1-3.6s-3.1,1.24-3.1,3.6Z"/><path class="cls-1" d="M94.8,141.28a3.13,3.13,0,0,0-3.23-3.22,3,3,0,0,0-3.1,3.16c0,1.18.31,2.3,2.67,3.23l3.72,1.48c4.71,1.8,6.2,5.15,6.2,8.87a9.32,9.32,0,0,1-9.43,9.49c-5,0-9.17-3.29-9.42-9.49h6c.25,1.74,1.06,3.53,3.41,3.53a3.43,3.43,0,0,0,3.54-3.41c0-1.73-.75-2.91-3.17-3.84l-3-1.12c-4-1.48-6.39-4.46-6.39-8.68a9.1,9.1,0,0,1,9.3-9.17c5.15,0,8.87,4,8.93,9.17Z"/><path class="cls-1" d="M105.77,122.93h6.32v9.55H116v5h-3.91v17.42c0,2.92,1.12,3.1,3.91,3.1v5.95h-2.6c-5.71,0-7.63-4-7.63-7.37v-19.1h-3.16v-5h3.16Z"/><path class="cls-1" d="M119.1,143a13.79,13.79,0,0,1,1.18-6.38,9.77,9.77,0,0,1,16.49,0A13.79,13.79,0,0,1,138,143v10.35a13.8,13.8,0,0,1-1.18,6.39,9.77,9.77,0,0,1-16.49,0,13.8,13.8,0,0,1-1.18-6.39Zm6.32,11.35c0,2.35,1.18,3.59,3.1,3.59s3.1-1.24,3.1-3.59V142c0-2.36-1.18-3.6-3.1-3.6s-3.1,1.24-3.1,3.6Z"/><path class="cls-1" d="M142.91,132.48h6.32v3h.12a6.7,6.7,0,0,1,6-3.41c3.16,0,6.51,2,6.51,7.69v24.11h-6.33V142.15c0-2.29-1.11-3.72-3.1-3.72-2.35,0-3.16,1.55-3.16,4.34v21.14h-6.32Z"/><path class="cls-1" d="M173,150.58v4.28a2.84,2.84,0,0,0,3.1,3.1c2.42,0,3-1.8,3.1-3.16h6.32a9.68,9.68,0,0,1-2.54,6.7,9.25,9.25,0,0,1-6.88,2.79,9,9,0,0,1-8.25-4.53,13.8,13.8,0,0,1-1.18-6.39V143a13.79,13.79,0,0,1,1.18-6.38,9,9,0,0,1,8.25-4.53c5.83,0,9.42,4.28,9.42,9.79v8.68Zm0-5h6.2V142c0-2.36-1.18-3.6-3.1-3.6s-3.1,1.24-3.1,3.6Z"/><path class="cls-1" d="M200.88,119.77h9.36c7.13,0,11.09,4.28,11.09,11.41v20.64c0,8.19-4.21,12.09-11.65,12.09h-8.8ZM207.2,158h2.91c3.54,0,4.9-1.73,4.9-5.52V131.18c0-3.47-1.18-5.46-4.9-5.46H207.2Z"/><path class="cls-1" d="M227.54,132.48h6.32v3.35c2.6-2.29,4.71-3.72,8.37-3.72v6.7a5,5,0,0,0-1.92-.38c-2.67,0-6.45,1.68-6.45,6.82v18.66h-6.32Z"/><path class="cls-1" d="M244.46,143a13.79,13.79,0,0,1,1.18-6.38,9.77,9.77,0,0,1,16.49,0,13.79,13.79,0,0,1,1.18,6.38v10.35a13.8,13.8,0,0,1-1.18,6.39,9.77,9.77,0,0,1-16.49,0,13.8,13.8,0,0,1-1.18-6.39Zm6.33,11.35c0,2.35,1.17,3.59,3.1,3.59s3.09-1.24,3.09-3.59V142c0-2.36-1.17-3.6-3.09-3.6s-3.1,1.24-3.1,3.6Z"/><path class="cls-1" d="M268.27,132.48h6.32v3h.13a6.69,6.69,0,0,1,5.95-3.41c3.16,0,6.51,2,6.51,7.69v24.11h-6.33V142.15c0-2.29-1.11-3.72-3.09-3.72-2.36,0-3.17,1.55-3.17,4.34v21.14h-6.32Z"/><path class="cls-1" d="M298.4,150.58v4.28a2.84,2.84,0,0,0,3.1,3.1c2.42,0,3-1.8,3.1-3.16h6.32a9.68,9.68,0,0,1-2.54,6.7,9.25,9.25,0,0,1-6.88,2.79,9,9,0,0,1-8.24-4.53,13.8,13.8,0,0,1-1.18-6.39V143a13.79,13.79,0,0,1,1.18-6.38,9,9,0,0,1,8.24-4.53c5.83,0,9.42,4.28,9.42,9.79v8.68Zm0-5h6.2V142c0-2.36-1.18-3.6-3.1-3.6s-3.1,1.24-3.1,3.6Z"/><path class="cls-1" d="M327.29,141.28a3.12,3.12,0,0,0-3.22-3.22,3,3,0,0,0-3.1,3.16c0,1.18.31,2.3,2.66,3.23l3.72,1.48c4.72,1.8,6.2,5.15,6.2,8.87a9.31,9.31,0,0,1-9.42,9.49c-5,0-9.17-3.29-9.42-9.49h6c.25,1.74,1,3.53,3.41,3.53a3.42,3.42,0,0,0,3.53-3.41c0-1.73-.74-2.91-3.16-3.84l-3-1.12c-4-1.48-6.38-4.46-6.38-8.68a9.1,9.1,0,0,1,9.3-9.17c5.14,0,8.86,4,8.92,9.17Z"/></g></g></g></g></svg>