<?xml version="1.0" standalone="no"?>
<!DOCTYPE svg PUBLIC "-//W3C//DTD SVG 20010904//EN"
 "http://www.w3.org/TR/2001/REC-SVG-20010904/DTD/svg10.dtd">
<svg version="1.0" xmlns="http://www.w3.org/2000/svg"
 width="545.000000pt" height="545.000000pt" viewBox="0 0 545.000000 545.000000"
 preserveAspectRatio="xMidYMid meet">
<g transform="translate(0.000000,545.000000) scale(0.100000,-0.100000)"
fill="#000000" stroke="none">
<path d="M2990 5065 l-555 -342 -35 17 c-213 105 -579 76 -865 -67 -255 -128
-462 -336 -533 -536 -20 -57 -26 -92 -26 -167 -1 -87 2 -101 31 -162 59 -126
173 -209 343 -252 128 -32 301 -29 460 9 63 15 120 30 125 33 6 4 15 7 22 8
23 4 158 69 231 111 138 80 253 182 339 299 l47 64 120 1 c67 0 234 2 371 5
138 3 289 6 337 7 49 1 88 -1 89 -5 4 -35 32 -135 44 -158 l15 -28 -98 -64
c-101 -67 -578 -375 -754 -489 -57 -36 -227 -146 -378 -244 -151 -98 -354
-228 -450 -291 l-175 -113 -61 29 c-344 166 -868 43 -1224 -287 -156 -145
-285 -351 -329 -528 -28 -110 -24 -272 8 -365 142 -412 689 -528 1214 -258
188 96 363 243 471 395 l39 55 156 -6 c86 -4 188 -8 226 -11 39 -2 133 -6 210
-10 77 -3 174 -8 215 -11 41 -2 116 -6 167 -8 50 -2 96 -7 101 -10 5 -3 12
-28 16 -56 4 -28 9 -57 12 -64 4 -10 -44 -47 -153 -119 -87 -57 -327 -215
-533 -352 -206 -136 -466 -308 -578 -382 l-203 -135 17 -26 c10 -15 85 -133
167 -262 82 -129 151 -237 153 -239 5 -5 45 23 338 230 121 87 257 183 301
214 100 70 326 231 625 444 l230 163 63 -31 c240 -115 520 -138 833 -68 47 11
184 62 247 93 285 138 512 379 593 629 41 129 52 308 25 425 -15 62 -88 220
-123 265 -125 160 -313 278 -518 326 -351 83 -724 12 -1040 -196 -87 -58 -263
-229 -306 -298 l-29 -47 -285 6 c-157 3 -359 7 -450 9 -91 2 -201 4 -245 4
l-81 1 -2 38 c-1 20 -7 59 -13 85 -9 39 -9 51 2 62 8 7 77 55 154 107 128 86
247 166 880 593 830 559 825 556 842 547 60 -31 195 -68 283 -79 184 -20 439
5 575 57 17 7 38 13 49 16 10 2 68 27 130 57 430 208 630 593 461 892 -49 87
-115 151 -220 212 -48 29 -147 70 -190 79 -255 58 -497 47 -734 -33 -182 -61
-349 -161 -472 -283 -42 -41 -89 -95 -104 -120 -15 -25 -30 -47 -32 -50 -4 -5
-4 -5 -248 -15 -88 -4 -196 -8 -240 -10 -328 -14 -425 -16 -426 -8 0 4 -3 27
-5 50 -2 24 -13 66 -25 95 l-20 52 23 18 c13 10 66 45 118 79 52 33 187 120
300 194 113 73 246 160 295 191 176 113 320 208 342 225 l23 17 -73 54 c-39
30 -76 57 -82 60 -5 3 -260 -149 -565 -337z m1660 -480 c149 -40 243 -140 242
-260 -2 -210 -273 -397 -565 -391 -134 3 -222 36 -296 108 -123 123 -75 320
109 444 52 35 130 76 130 68 0 -2 9 0 21 6 67 36 265 50 359 25z m-2594 -101
c64 -19 119 -62 145 -112 27 -56 23 -136 -11 -206 -62 -130 -254 -258 -421
-282 -230 -33 -387 61 -374 224 17 196 286 391 538 390 43 0 98 -6 123 -14z
m-804 -2084 c213 -58 282 -267 160 -488 -29 -54 -162 -190 -207 -212 -17 -8
-41 -22 -55 -31 -24 -16 -124 -50 -184 -64 -36 -8 -149 -8 -191 1 -228 43
-309 292 -167 509 141 216 428 343 644 285z m2838 -54 c118 -10 252 -73 315
-148 39 -46 72 -117 83 -177 33 -184 -92 -388 -303 -492 -107 -52 -171 -67
-292 -67 -152 0 -252 34 -349 121 -206 185 -135 506 150 675 37 23 90 48 116
57 52 17 189 43 205 39 6 -2 39 -5 75 -8z"/>
</g>
</svg>
