<svg id="icons_final_copy" data-name="icons final copy" xmlns="http://www.w3.org/2000/svg" viewBox="0 0 140 140"><defs><style>.cls-1{fill:#e8c547;}.cls-2{fill:#2a4060;}</style></defs><title>icon_a5</title><g id="_5" data-name="5"><polygon class="cls-1" points="102.22 82.11 100.62 83.03 85.06 92.01 78.99 79.86 77.51 76.91 83.78 73.3 84.15 73.08 86.05 71.98 94.66 67.01 102.22 82.11"/><path class="cls-2" d="M122.93,96.49a.42.42,0,0,0,0-.1,2.93,2.93,0,0,0-.19-.4l0-.1-.06-.12-.07-.13-.07-.15-.08-.16-.09-.18-.09-.19-.1-.2-.11-.21-.11-.23-.12-.23-.13-.25-.13-.26-.13-.27-.14-.28-.14-.29-.15-.29-.15-.31-.16-.31-.16-.32-.16-.32-.17-.33-.16-.34-.18-.35-.17-.34-.18-.36-.18-.35-.18-.37-.18-.36-.18-.37-.18-.36-.19-.37-.19-.38-.18-.37-.19-.37-.18-.37-.19-.37-.19-.38-.18-.36-.18-.37-.19-.37-.18-.36-.18-.36-.17-.35-.18-.35-.17-.35-.17-.34-.17-.33-.16-.33-.16-.33-.16-.31-.15-.31-.15-.3-.15-.29-.14-.28-.14-.27-.13-.27-.12-.25-.13-.24-.11-.23-.11-.22-.1-.21-.1-.19-.09-.18-.09-.17L113.2,77l-.07-.14-.06-.13L113,76.6l0-.09,0-.08,0-.06,0-.07a1.06,1.06,0,0,0-.61-.51,1,1,0,0,0-.79.09l-8.64,5L95.54,66.3a1.06,1.06,0,0,0-.61-.51,1,1,0,0,0-.79.09l-8.64,5L78.22,56.3a1.06,1.06,0,0,0-.61-.51,1,1,0,0,0-.79.09l-52,30a1,1,0,0,0-.39,1.32l1.82,3.63-8.75,5a1,1,0,0,0,0,1.74l17.35,10,.09.05.63.37,16.6,9.58.09.05.63.37,16.57,9.57a1,1,0,0,0,.21.09l.08,0,.21,0a1,1,0,0,0,.5-.13l16.57-9.57,17.32-10,18.07-10.43a.87.87,0,0,0,.21-.17,1,1,0,0,0,.28-.59A.92.92,0,0,0,122.93,96.49ZM84.67,73.67l1.73-1,7.82-4.52,6.87,13.72-1.45.84L85.5,90.87,80,79.83l-1.34-2.68,5.69-3.28Zm-.9,18.2-15.59,9-5.52-11-1.34-2.68,6-3.48,1.74-1,7.82-4.52,1.34,2.68.9,1.8ZM76.9,58.15l6.87,13.72-1.45.84L68.18,80.87l-5.52-11-1.34-2.68Zm-17.32,10,1.34,2.68,5.52,11-15.58,9-5.52-11L44,77.15Zm-23.8,37.2L28,89.83l-1.34-2.68,15.58-9,1.34,2.69,5.52,11-6.94,4a1,1,0,0,0-.39,1.32l1.81,3.63Zm17.32,10L45.34,99.83,44,97.15l6-3.48,1.74-1,7.82-4.52,1.34,2.68,5.52,11-6.94,4a1,1,0,0,0-.39,1.32l1.81,3.63Zm17.32,10-7.76-15.52-1.34-2.68,6-3.48,1.74-1,7.82-4.52,1.34,2.68.9,1.8L86,116.35Zm17.32-10L80,99.83l-1.34-2.68,6-3.48,1.73-1,7.82-4.52,1.34,2.68.9,1.8,6.87,13.72Zm17.32-10L97.3,89.83,96,87.15l5.69-3.28.34-.2,1.73-1,7.82-4.52,8,16.07,1.07,2.13Z"/><rect class="cls-2" x="107.89" y="89.27" width="3" height="2" transform="translate(2.02 182.94) rotate(-80.33)"/><path class="cls-2" d="M111.71,82.68l-2-.34,1-5.68,2.07-.26Zm2.14-12.56-2-.34L113,63.5l2,.34ZM116,57.56l-2-.34,1.07-6.28,2,.34ZM118.15,45l-2-.34,1.07-6.28,2,.34Zm2.15-12.56-2-.34,1.08-6.28,2,.34Z"/><path class="cls-2" d="M95.76,74.06,94,73.19l2.58-5.41,1.81.86Zm5.16-10.84-1.81-.86,2.59-5.42,1.8.87Zm5.16-10.83-1.8-.86,2.58-5.42,1.8.86Zm5.17-10.83-1.81-.87L112,35.28l1.81.86Zm5.16-10.84-1.81-.86,2.59-5.42,1.8.87Z"/><rect class="cls-2" x="90.13" y="79.4" width="3" height="2" transform="translate(-20.4 128.46) rotate(-64.49)"/><path class="cls-2" d="M80.42,65.57l-1.5-1.32,4-4.59L84.45,61Zm8.06-9.18L87,55.07l4-4.59,1.51,1.32Zm8.07-9.18-1.5-1.33,4-4.59,1.5,1.33ZM104.61,38l-1.5-1.32,4-4.59,1.5,1.32Zm8.06-9.19-1.5-1.32,4-4.59,1.5,1.32Z"/><rect class="cls-2" x="73.15" y="69.62" width="3" height="2" transform="translate(-27.68 80.06) rotate(-48.68)"/><circle class="cls-2" cx="121.96" cy="16.75" r="4.5"/></g></svg>