<svg id="icons_final_copy" data-name="icons final copy" xmlns="http://www.w3.org/2000/svg" viewBox="0 0 140 140"><defs><style>.cls-1{fill:#2a4060;}.cls-2{fill:#e8c547;}</style></defs><title>icon_a1</title><g id="_1" data-name="1"><path class="cls-1" d="M93.9,77.41l-2.28-5.75,1.86-.73,2.28,5.75Zm-4.55-11.5-2.27-5.75,1.86-.74,2.27,5.75Zm-4.54-11.5-2.28-5.75,1.86-.74,2.28,5.75Zm-4.55-11.5L78,37.16l1.86-.74,2.27,5.75Zm-4.54-11.5-2.28-5.75,1.86-.74,2.28,5.75Z"/><path class="cls-1" d="M46.1,77.41l-1.86-.73,2.27-5.76,1.86.74Zm4.55-11.5-1.86-.74,2.27-5.75,1.86.74Zm4.54-11.5-1.86-.74,2.27-5.75,1.86.74Zm4.55-11.5-1.86-.74,2.27-5.75,1.86.74Zm4.54-11.5-1.86-.74,2.27-5.75,1.86.74Z"/><path class="cls-2" d="M64,71.36,20,96.75l26.84,15.5,2.31-4c-5.42-3.12-8.39-7.23-8.4-11.56s2.92-8.37,8.27-11.47c5.73-3.33,13.27-5,20.83-5H70l0-3.08A6,6,0,0,1,64,71.36Zm29.61,9L75.9,70.16a5.36,5.36,0,0,1,.09,1v.21a6,6,0,0,1-12,0,1.48,1.48,0,0,1,0-.21,5.36,5.36,0,0,1,.09-1L46.29,80.44,18,96.75l28.34,16.37L70,126.75,93.7,113.06,122,96.75Zm-23.72-.15H70c7.54,0,15.1,1.68,20.86,5,5.4,3.13,8.39,7.23,8.39,11.56s-2.93,8.37-8.27,11.47c-11.47,6.67-30.19,6.67-41.74,0-5.42-3.12-8.39-7.23-8.4-11.56s2.92-8.37,8.27-11.47C54.79,81.9,62.33,80.23,69.89,80.23Z"/><path class="cls-1" d="M91.81,83.5c-12.11-7-31.74-7-43.76,0-6,3.48-9.28,8.17-9.26,13.2s3.34,9.8,9.4,13.3,14,5.23,21.91,5.23,15.83-1.74,21.83-5.24,9.28-8.16,9.27-13.2S97.87,87,91.81,83.5ZM49.19,108.26c-5.42-3.12-8.39-7.23-8.4-11.56s2.92-8.37,8.27-11.47c5.73-3.33,13.27-5,20.83-5s15.13,1.67,20.92,5c5.4,3.13,8.39,7.23,8.39,11.56s-2.93,8.37-8.27,11.47C79.46,114.93,60.74,114.93,49.19,108.26Z"/><path class="cls-1" d="M122.46,95.88l-47-27.11a5.42,5.42,0,0,1,.4,1.39,5.36,5.36,0,0,1,.09,1v.21l44,25.39L93.2,112.2,70,125.6,46.88,112.26h0L20,96.75,64,71.36a1.48,1.48,0,0,1,0-.21,5.36,5.36,0,0,1,.09-1,5.44,5.44,0,0,1,.41-1.39L17.54,95.88a1,1,0,0,0,0,1.74l52,30a1,1,0,0,0,.5.13.91.91,0,0,0,.5-.13l52-30a1,1,0,0,0,0-1.74Z"/><circle class="cls-1" cx="70" cy="16.75" r="4.5"/><path class="cls-2" d="M70,56.75a14.4,14.4,0,0,0-14.4,14.4c0,9.6,14.4,25.6,14.4,25.6s14.4-16,14.4-25.6A14.4,14.4,0,0,0,70,56.75Zm0,19.58a5.18,5.18,0,1,1,5.18-5.18A5.18,5.18,0,0,1,70,76.33Z"/><path class="cls-1" d="M70,98.24l-.74-.82C68.66,96.75,54.6,81,54.6,71.15a15.4,15.4,0,0,1,30.8,0c0,9.87-14.06,25.6-14.66,26.27Zm0-40.49a13.41,13.41,0,0,0-13.4,13.4C56.6,79,67.08,91.82,70,95.23,72.91,91.82,83.4,79,83.4,71.15A13.41,13.41,0,0,0,70,57.75Zm0,19.58a6.18,6.18,0,1,1,6.18-6.18A6.18,6.18,0,0,1,70,77.33ZM70,67a4.18,4.18,0,1,0,4.18,4.18A4.18,4.18,0,0,0,70,67Z"/></g></svg>