<svg id="icons_final_copy" data-name="icons final copy" xmlns="http://www.w3.org/2000/svg" viewBox="0 0 140 140"><defs><style>.cls-1{fill:#efbd47;}.cls-2{fill:#25324e;}</style></defs><title>icon_a2</title><g id="_2" data-name="2"><polygon class="cls-1" points="70 106.75 52.68 96.75 52.68 76.75 70 66.75 87.32 76.75 87.32 96.75 70 106.75"/><path class="cls-2" d="M130.62,121.75l-5.48-9.5-2.24,3.88-16.26-9.38,15.82-9.13a1,1,0,0,0,0-1.74L104.39,85.45,88.32,76.17l-1.25-.72L71,66.18V26.25h4.48L70,16.75l-5.48,9.5H69V66.18L17.54,95.88a1,1,0,0,0,0,1.74l15.82,9.13L17.1,116.13l-2.24-3.88-5.48,9.5h11l-2.25-3.89,17.25-10,17.58,10.14,16.57,9.57a1,1,0,0,0,1,0l16.57-9.57,17.58-10.14,17.25,10-2.25,3.89ZM88.32,78.48l14.32,8.27L88.32,95ZM71,105V87.33l15.32-8.84V96.17M70,67.9l15.31,8.85L70,85.59,54.69,76.75ZM53.68,96.17V78.49L69,87.33V105ZM20,96.75l15.32-8.84,15.31,8.84-15.31,8.84Zm32.64,18.84h0l-15.31-8.84L52.67,97.9h0L68,106.75ZM70,125.6l-15.32-8.85L70,107.91l15.32,8.84Zm17.33-10h0L72,106.75l15.31-8.84h0l15.31,8.85Zm17.31-10L89.33,96.75l15.31-8.84L120,96.75Z"/><path class="cls-2" d="M103,44.4c-.89-.36-1.82-.71-2.76-1l.65-1.89c1,.33,1.94.69,2.86,1.06Z"/><path class="cls-2" d="M26.38,69.37a23,23,0,0,1-4.47-3.9l1.52-1.3a20.38,20.38,0,0,0,4.07,3.54Zm-7.31-9.31A10,10,0,0,1,18.84,58a10.21,10.21,0,0,1,.86-4.06l1.83.79A8.24,8.24,0,0,0,20.84,58,7.4,7.4,0,0,0,21,59.63Zm5.56-9.6L23.26,49A27.16,27.16,0,0,1,28,45.5l1,1.72A25,25,0,0,0,24.63,50.46ZM34,44.74l-.78-1.84.86-.36c1.44-.58,3-1.13,4.56-1.63l.6,1.9c-1.54.49-3,1-4.41,1.58Zm60.88-3c-1.75-.45-3.59-.86-5.48-1.21l.37-2c1.93.37,3.82.79,5.61,1.25Zm-50.23-.42-.45-2c1.8-.42,3.7-.81,5.63-1.13l.33,2C48.25,40.55,46.39,40.92,44.62,41.34Zm39.19-1.67c-1.83-.24-3.71-.44-5.6-.59l.16-2c1.92.15,3.84.35,5.7.59Zm-28.1-.22-.23-2c1.87-.21,3.79-.38,5.71-.5l.13,2C59.43,39.07,57.54,39.24,55.71,39.45Z"/><path class="cls-2" d="M33,76.73a4.51,4.51,0,1,0-2.5-5.87A4.51,4.51,0,0,0,33,76.73Z"/></g></svg>