<svg id="icons_final_copy" data-name="icons final copy" xmlns="http://www.w3.org/2000/svg" viewBox="0 0 140 140"><defs><style>.cls-1{fill:#e8c547;}.cls-2{fill:#2a4060;}.cls-3,.cls-4{fill:none;stroke:#2a4060;stroke-miterlimit:10;stroke-width:2px;}.cls-4{stroke-dasharray:6.27 6.27;}</style></defs><title>icon_a2</title><g id="_2" data-name="2"><polygon class="cls-1" points="70 106.75 52.68 96.75 52.68 76.75 70 66.75 87.32 76.75 87.32 96.75 70 106.75"/><path class="cls-2" d="M130.62,121.75l-5.48-9.5-2.24,3.88-16.26-9.38,15.82-9.13a1,1,0,0,0,0-1.74L104.39,85.45,88.32,76.17l-1.25-.72L71,66.18V26.25h4.48L70,16.75l-5.48,9.5H69V66.18L17.54,95.88a1,1,0,0,0,0,1.74l15.82,9.13L17.1,116.13l-2.24-3.88-5.48,9.5h11l-2.25-3.89,17.25-10,17.58,10.14,16.57,9.57a1,1,0,0,0,1,0l16.57-9.57,17.58-10.14,17.25,10-2.25,3.89ZM88.32,78.48l14.32,8.27L88.32,95ZM71,105V87.33l15.32-8.84V96.17M70,67.9l15.31,8.85L70,85.59,54.69,76.75ZM53.68,96.17V78.49L69,87.33V105ZM20,96.75l15.32-8.84,15.31,8.84-15.31,8.84Zm32.64,18.84h0l-15.31-8.84L52.67,97.9h0L68,106.75ZM70,125.6l-15.32-8.85L70,107.91l15.32,8.84Zm17.33-10h0L72,106.75l15.31-8.84h0l15.31,8.85Zm17.31-10L89.33,96.75l15.31-8.84L120,96.75Z"/><path class="cls-3" d="M104.35,20.39c-.85-.5-1.73-1-2.64-1.42"/><path class="cls-4" d="M96,16.5c-18.87-6.92-44.16-5.62-60.53,3.89C26,25.87,20.82,33.26,20.84,41.18c0,6.44,3.42,12.52,9.73,17.52"/><path class="cls-3" d="M33.11,60.54c.82.55,1.66,1.08,2.55,1.59"/><path class="cls-2" d="M33.4,66a4.52,4.52,0,1,0-1.65-6.17A4.53,4.53,0,0,0,33.4,66Z"/></g></svg>