<svg id="process_icons_outlined" data-name="process icons outlined" xmlns="http://www.w3.org/2000/svg" viewBox="0 0 140 140"><defs><style>.cls-1{fill:#efbd47;}.cls-2{fill:#25324e;}</style></defs><title>icon_b1</title><g id="_6" data-name="6"><polygon class="cls-1" points="47.8 79.56 60.03 72.5 60.03 86.61 47.8 79.56"/><polygon class="cls-1" points="18.03 96.75 37.91 85.28 70.18 103.9 80.05 98.17 80.05 72.55 121.96 96.75 70 126.75 18.03 96.75"/><path class="cls-2" d="M122.46,95.88,81.05,72V40.27a.39.39,0,0,0,0-.15.8.8,0,0,0-.11-.34,1.09,1.09,0,0,0-.37-.37l0,0-18.94-11a1,1,0,0,0-1,0l-9.86,5.73a1,1,0,0,0-.5.87v9.86a1,1,0,0,0,.49.86L59,50.58V71.92l-41.5,24a1,1,0,0,0,0,1.74l52,30a1,1,0,0,0,.5.13,1,1,0,0,0,.5-.13l52-30a1,1,0,0,0,0-1.74ZM61.07,30.38l17,9.89-7.88,4.58L53.2,35ZM79.05,42V97.6l-7.87,4.57V46.58ZM52.21,44.25V36.7l17,9.88v55.59L61,97.47V50a1,1,0,0,0-.49-.86Zm6.82,30V84.88L49.8,79.56ZM70,125.6,20,96.75,37.9,86.43,59.53,98.91l10.15,5.86a1,1,0,0,0,.5.14,1,1,0,0,0,.5-.14L80.55,99a1,1,0,0,0,.5-.87V74.28L120,96.75Z"/></g></svg>