<svg id="process_icons_outlined" data-name="process icons outlined" xmlns="http://www.w3.org/2000/svg" viewBox="0 0 140 140"><defs><style>.cls-1{fill:#efbd47;}.cls-2{fill:#25324e;}</style></defs><title>icon_b3</title><g id="_3" data-name="3"><path class="cls-1" d="M18,96.75,36.86,85.89,63.1,101l1.47.86.19.1A17.8,17.8,0,0,0,73,104.56a7.09,7.09,0,0,0,3.62-.89l.17-.08c.08-.06.16-.1.24-.15l9.51-5.52c2.61-1.52,4-4.81,4-9.52a23.42,23.42,0,0,0-1.72-8.72l-1-2.67L122,96.75l-52,30Z"/><path class="cls-2" d="M122.46,95.88,88.29,76.15a34.14,34.14,0,0,0-3-4.6l1.64-1c1.78-1,3.91-3.34,3.94-8.48,0-9.21-7.59-21.11-17-26.53-5.14-3-9.81-3.51-13.18-1.55-2.62,1.53-5.24,3.08-7.88,4.58-1.79,1-3.56,2-4.73,3.76a12.55,12.55,0,0,0-1.84,5.38c-.06.44-.09.88-.13,1.32a1,1,0,0,0,.5.93L57,56a.7.7,0,0,0,.2.08l.08,0h.11a1,1,0,0,0,.3,0h0l.12,0h0a.82.82,0,0,0,.2-.12l3.77-2.19a4.5,4.5,0,0,1,.43.23,9.76,9.76,0,0,1,3.12,2.88L58,61.21a.08.08,0,0,0-.06,0,.41.41,0,0,0-.11.07.43.43,0,0,0-.1.09.7.7,0,0,0-.15.19.05.05,0,0,0,0,0,.77.77,0,0,0-.07.16.29.29,0,0,0,0,.09.83.83,0,0,0,0,.22l0,6.32-.61-.36a1,1,0,0,0-1,0L45.9,73.79h0a1,1,0,0,0-.48.89A27.74,27.74,0,0,0,46,79.47L34.86,85.88l-17.32,10a1,1,0,0,0,0,1.74l52,30a1,1,0,0,0,1,0l52-30A1,1,0,0,0,122.46,95.88ZM61.78,35.76c2.72-1.58,6.68-1,11.17,1.57,9.57,5.52,16,17.28,16,24.79,0,3.35-1,5.63-3,6.75L83.33,70.4a.94.94,0,0,0-.41.47,1.72,1.72,0,0,0-.07.21,1,1,0,0,0,.21.81c.57.71,1.11,1.44,1.61,2.18a31.83,31.83,0,0,1,2.09,3.51A22.83,22.83,0,0,1,89.39,91c-.33,2.3-1.22,4.85-3.34,6.08l-5.34,3.11c.17-.1.32-1,.37-1.16.14-.5.25-1,.34-1.51a19,19,0,0,0,.27-3.37,25,25,0,0,0-2.5-10.68,33.65,33.65,0,0,0-3.88-6.37,7.66,7.66,0,0,0,2-.86,7.56,7.56,0,0,0,3-3.94c1.56-4.32.39-9.3-1.29-13.4A38.48,38.48,0,0,0,70,45.75a26.11,26.11,0,0,0-11.88-6.83c-.45-.1-.88-.16-1.33-.23Zm4.65,22.82c0,.13.11.27.15.4s.07.18.1.27,0,.07,0,.11c.38,1.33.72,3.16-.07,4.41-.47.75-1.32.69-2.09.49l-.29-.09a6.71,6.71,0,0,1-.7-.27l-.77-.4-2.42-1.4ZM56.26,70.09l1.1.64v2.38a1.65,1.65,0,0,0,.21,1.07,3.91,3.91,0,0,0,1.16.77l1.56.9,1,.55a2.05,2.05,0,0,0,.4.23l-1.87,1.09c-1,.59-2,1.19-3,1.76l-3.4-2-1-.58-1-.58-2.94-1.7Zm7.24,7.77c.21.17.41.33.6.5a10.61,10.61,0,0,1,3.34,5.23,10.21,10.21,0,0,1,.32,2.64c0,1.57-.4,2.69-1.07,3.08-.83.49-2,0-2.73-.44A13.71,13.71,0,0,1,61.24,87a11.79,11.79,0,0,1-.93-.94,10.65,10.65,0,0,1-2.47-4.88Zm-7.68,3.41c.08.07.11.57.14.68a12.21,12.21,0,0,0,.77,2.2,12.34,12.34,0,0,0,1.61,2.65,14.74,14.74,0,0,0,4.27,3.63c1.45.83,3.38,1.52,5,.67s2.1-2.81,2.16-4.5c0-.12,0-.24,0-.36a11.85,11.85,0,0,0-2.69-7.68A16.41,16.41,0,0,0,62.76,75l-2.5-1.44-.9-.52V63.82c1.68,1,3.43,2.23,5.38,2.51a3.69,3.69,0,0,0,3.34-1.08,5.32,5.32,0,0,0,1-3.46,7.66,7.66,0,0,0,0-.86,10.42,10.42,0,0,0-1.32-4.24A11.38,11.38,0,0,0,62,51.58a4.34,4.34,0,0,0-2.28-.27A3.71,3.71,0,0,0,57,53.57l0,.06-8.73-5a10.56,10.56,0,0,1,1.85-5.44,6.62,6.62,0,0,1,5.11-2.55,15.2,15.2,0,0,1,7.9,2.47,29.36,29.36,0,0,1,5.5,4.14c.69.65,1.36,1.33,2,2,.43.48.85,1,1.25,1.46A36.09,36.09,0,0,1,76,57.1c.43.84.82,1.69,1.17,2.54,1.49,3.63,2.66,8.17,1.25,12a5.66,5.66,0,0,1-5,3.75,1,1,0,0,0-.84.62,1,1,0,0,0,0,.63l0,.12.06.12.1.15a33.32,33.32,0,0,1,4.66,7.25,21.84,21.84,0,0,1,2,13.46,8.58,8.58,0,0,1-1.66,3.73c-3,3.69-8.38,1.76-11.88-.07l-.62-.33a36.42,36.42,0,0,1-10.5-8.63c-.23-.28-.46-.55-.68-.84a31.56,31.56,0,0,1-5.77-11.37,26.92,26.92,0,0,1-.71-3.77ZM70,125.6,20,96.75,36.86,87l25.64,14.8.09,0,1.66,1h0c3.69,2,8.85,4,12.86,1.67l.12-.06,0,0,0,0,.21-.13,9.52-5.52c2.93-1.71,4.49-5.29,4.5-10.39a24.46,24.46,0,0,0-1.79-9.09L120,96.75Z"/></g></svg>