<svg id="icons_final_copy" data-name="icons final copy" xmlns="http://www.w3.org/2000/svg" viewBox="0 0 140 140"><defs><style>.cls-1{fill:#efbd47;}.cls-2{fill:#25324e;}</style></defs><title>icon_a6</title><g id="_6" data-name="6"><path class="cls-1" d="M95.32,82.52a11.24,11.24,0,0,1-4.38.89,11.11,11.11,0,0,1-10.64-7.8,12.12,12.12,0,0,1-7-2.57,12.34,12.34,0,0,1-3.73-4.89L20,96.75,70,125.6l12-6.94c-.06-.09-.12-.18-.17-.27a11.34,11.34,0,0,1-7.79-21.08c.2-.11.41-.21.62-.3a11.38,11.38,0,0,1,9.63.13,8.36,8.36,0,0,1,12.18,10.61,8.77,8.77,0,0,1,1.26,1.83L120,96.75ZM78.43,90.74a5.72,5.72,0,0,1-4,1.69H74.3a5.8,5.8,0,0,1-1.11-.11,7.11,7.11,0,1,1-8.4-10.69A5.35,5.35,0,0,1,75,80.9a5.79,5.79,0,0,1,3.47,9.84Z"/><path class="cls-2" d="M122.46,95.88,97.36,81.39a11.12,11.12,0,0,0,4.57-7.23A15.27,15.27,0,1,0,84.09,51.74a11.79,11.79,0,0,0-3.3-.46A12.18,12.18,0,0,0,68.62,63.45a11.83,11.83,0,0,0,.32,2.75L17.54,95.88a1,1,0,0,0,0,1.74l52,30a1,1,0,0,0,1,0l12.78-7.38a9.1,9.1,0,0,0,15.48-6.47,8.79,8.79,0,0,0-.3-2.3l24-13.85a1,1,0,0,0,0-1.74ZM80.79,53.28a9.89,9.89,0,0,1,3.42.6l.82.3.41-.77a13.27,13.27,0,1,1,15.31,19l-.65.18-.07.67a9.1,9.1,0,0,1-4.63,7,9.33,9.33,0,0,1-1.11.52,8.16,8.16,0,0,1-1.3.4,9.27,9.27,0,0,1-2,.23,9.1,9.1,0,0,1-8.75-6.47,4.94,4.94,0,0,1-.15-.55l-.19-.77H80.79c-.32,0-.64,0-1,0a10.14,10.14,0,0,1-7.31-4.23,9,9,0,0,1-1-1.72A9.18,9.18,0,0,1,71,66.16a10.08,10.08,0,0,1-.37-2.71A10.18,10.18,0,0,1,80.79,53.28Zm13.89,65.51a7.1,7.1,0,0,1-9.58.4,5.92,5.92,0,0,1-.45-.41c-.1-.1-.2-.21-.29-.32a5.13,5.13,0,0,1-.61-.8,5.61,5.61,0,0,1-.49-.86l-.37-.79-.83.26a9.34,9.34,0,1,1,1.85-17.08l.58.33L85,99.1a6.35,6.35,0,0,1,9.37,8.29l-.41.67.7.7A6.93,6.93,0,0,1,96,110.59a6.19,6.19,0,0,1,.39.92,5.84,5.84,0,0,1,.25,1,6.36,6.36,0,0,1,.12,1.24A7,7,0,0,1,94.68,118.79Zm3.06-9.21a8.77,8.77,0,0,0-1.26-1.83A8.36,8.36,0,0,0,84.3,97.14,11.38,11.38,0,0,0,74.67,97c-.21.09-.42.19-.62.3a11.33,11.33,0,0,0,7.79,21.08c0,.09.11.18.17.27L70,125.6,20,96.75l49.52-28.6A12.34,12.34,0,0,0,73.29,73a12.12,12.12,0,0,0,7,2.57,11.11,11.11,0,0,0,10.64,7.8,11.24,11.24,0,0,0,4.38-.89L120,96.75Z"/><path class="cls-2" d="M75,80.9a5.35,5.35,0,0,0-10.17.73,7.11,7.11,0,1,0,8.4,10.69,5.8,5.8,0,0,0,1.11.11h.13a5.77,5.77,0,0,0,5.69-5.78A5.79,5.79,0,0,0,75,80.9ZM77,89.33a3.79,3.79,0,0,1-2.68,1.1,3.61,3.61,0,0,1-1.27-.22l-.82-.3-.4.77a5.12,5.12,0,1,1-5.91-7.33l.65-.18.07-.67a3.35,3.35,0,0,1,6.59-.4l.18.77h.91A3.79,3.79,0,0,1,77,89.33Z"/><path class="cls-2" d="M31.42,73.35l-.24-2A22.93,22.93,0,0,0,34,70.84l.49,1.94A23.33,23.33,0,0,1,31.42,73.35Z"/><path class="cls-2" d="M40.4,70.53l-.91-1.78a33.35,33.35,0,0,0,5-3.18l1.22,1.58A34.14,34.14,0,0,1,40.4,70.53ZM50.34,63,48.9,61.59A47.82,47.82,0,0,0,52.76,57l1.6,1.19A49.24,49.24,0,0,1,50.34,63ZM57.78,53l-1.73-1a48.31,48.31,0,0,0,2.61-5.18l.07-.17,1.85.78-.08.18A50.41,50.41,0,0,1,57.78,53ZM54,50.12A17.73,17.73,0,0,1,52.2,50a14.19,14.19,0,0,1-1.57-.24l.39-2q.69.14,1.38.21a16.71,16.71,0,0,0,4.34-.15l.32,2A20.06,20.06,0,0,1,54,50.12Zm9.13-2.22-.88-1.79a23.08,23.08,0,0,0,4.86-3.23l1.31,1.51A24.68,24.68,0,0,1,63.12,47.9Zm-18.46-.55A16.46,16.46,0,0,1,40,42.84l1.66-1.11a14.4,14.4,0,0,0,4.06,3.94Zm17.68-6-2-.31A19,19,0,0,0,60.61,38a16.85,16.85,0,0,0-.21-2.69l2-.32a19.73,19.73,0,0,1,.23,3A20.61,20.61,0,0,1,62.34,41.38Zm10.33-1.66-1.62-1.18a32.6,32.6,0,0,0,3-5.08l1.8.87A35,35,0,0,1,72.67,39.72Zm-34.93-3q-.06-.6-.06-1.2a13.26,13.26,0,0,1,1.14-5.26l1.83.81a11.16,11.16,0,0,0-1,4.45c0,.33,0,.67,0,1ZM58.4,30a12.38,12.38,0,0,0-4-3.88l1-1.72a14.48,14.48,0,0,1,4.7,4.49ZM44,26.67,42.81,25.1a10.72,10.72,0,0,1,6-2.33H49l.08,2H49A8.82,8.82,0,0,0,44,26.67Z"/><path class="cls-2" d="M82.43,26.4a4.51,4.51,0,1,0-5.49,3.24A4.5,4.5,0,0,0,82.43,26.4Z"/></g></svg>