<svg id="process_icons_outlined" data-name="process icons outlined" xmlns="http://www.w3.org/2000/svg" viewBox="0 0 140 140"><defs><style>.cls-1{fill:#efbd47;}.cls-2{fill:#25324e;}</style></defs><title>icon_b2</title><g id="_2" data-name="2"><path class="cls-1" d="M18,96.75l20.87-12,9.56,5.51,0,0,31.35,18.1.17-.1h0l9.69-5.64,0-11.48L74.5,82.31l8.57-6.38.39-.29L84.3,75,122,96.75l-52,30Z"/><path class="cls-2" d="M122.46,95.88,86,74.85A16.32,16.32,0,0,0,91.72,62c0-9.92-7.41-22-17-27.53C69.66,31.56,65,31,61.55,33c-3.08,1.79-6.21,3.52-9.25,5.39a11.38,11.38,0,0,0-2.47,1.83,9.15,9.15,0,0,0-1.45,2.1A13.85,13.85,0,0,0,47,48.06c0,.27,0,.54,0,.81a1,1,0,0,0,.5.87l.23.13,9.72,5.62a2.3,2.3,0,0,0,.8.36,1.61,1.61,0,0,0,.94-.34L63.44,53A9.51,9.51,0,0,1,67.91,61a8.68,8.68,0,0,1-3.76,7.64,25.55,25.55,0,0,1-2.75,2c-.42.23-.83.47-1.24.71l-3.51,2-3.87,2.24-3,1.73-1,.55L17.54,95.88a1,1,0,0,0,0,1.74l52,30a1,1,0,0,0,1,0l52-30a1,1,0,0,0,0-1.74ZM62.55,34.75c2.73-1.59,6.82-1,11.22,1.49,9,5.17,16,16.46,16,25.73V62a14.42,14.42,0,0,1-5.53,11.76c-.28.24-.57.46-.84.67s-.59.45-.88.67l-3.93,2.93a1.33,1.33,0,0,0,.14-.19l.12-.17a19.69,19.69,0,0,0,1.44-2.37,14.94,14.94,0,0,0,1-2.69,19.51,19.51,0,0,0,.53-6.85,26.49,26.49,0,0,0-1.14-5.57,34.53,34.53,0,0,0-2.34-5.62,38.18,38.18,0,0,0-3.41-5.35,37.24,37.24,0,0,0-4.1-4.59,32.32,32.32,0,0,0-4.25-3.4A25.5,25.5,0,0,0,62,38.81a17.47,17.47,0,0,0-4.42-1.16ZM49.39,82.52l1.53-1.18L52.62,80l10.65-8.23,0,0,2.06-1.6a13.34,13.34,0,0,0,2.07-1.94,9.75,9.75,0,0,0,1.28-1.9A11.47,11.47,0,0,0,69.91,61a10.91,10.91,0,0,0-.4-2.9,11.16,11.16,0,0,0-1.15-2.71A11.66,11.66,0,0,0,66.53,53a11.13,11.13,0,0,0-2.45-1.87,7.61,7.61,0,0,0-1.95-.82,3.81,3.81,0,0,0-2.64.25,4,4,0,0,0-1.77,2.32c0,.11-.11.38-.12.4L49,48.3a3.21,3.21,0,0,1,0-.6c0-.2,0-.4.05-.6,0-.38.1-.77.18-1.14a10.45,10.45,0,0,1,.59-2.05,7.32,7.32,0,0,1,2.19-3A6.3,6.3,0,0,1,55,39.69c3.11-.51,6.3.76,8.95,2.29a29.1,29.1,0,0,1,5.5,4.15c6.27,5.92,10.47,14.62,10.45,21.63a14.37,14.37,0,0,1-2.51,8.49,27.32,27.32,0,0,1-6.14,5.66l-.54.4-5.75,4.28-.8.61a1.3,1.3,0,0,0-.18.15.94.94,0,0,0-.29.68,1,1,0,0,0,.28.69,4,4,0,0,0,1,.63l14,8.09v9.17l-29.48-17ZM88.74,102l-7.87,4.58V97.43l7.87-4.55Zm-8.5-6.51-.33.2-.06,0L66.56,88.07l.07,0h0l7.86-4.57,13.28,7.66ZM70,125.6,20,96.75l18.87-10.9,9,5.16,0,0,31.48,18.17a1.09,1.09,0,0,0,.5.13.78.78,0,0,0,.26,0,.52.52,0,0,0,.16-.06l.08,0,.06,0,9.81-5.71a1,1,0,0,0,.53-.88V91.12a1,1,0,0,0-.5-.87l-14-8,7.35-5.47.71-.53L120,96.75Z"/></g></svg>