<svg id="icons_final_copy" data-name="icons final copy" xmlns="http://www.w3.org/2000/svg" viewBox="0 0 140 140"><defs><style>.cls-1{fill:#e8c547;}.cls-2{fill:#2a4060;}.cls-3{fill:#fff;}</style></defs><title>icon_a6</title><g id="_6" data-name="6"><polygon class="cls-1" points="121.95 96.75 70 126.75 18.05 96.75 70 66.75 121.95 96.75"/><path class="cls-2" d="M122.46,95.88l-52-30a1,1,0,0,0-1,0l-52,30a1,1,0,0,0,0,1.74l52,30a1,1,0,0,0,1,0l52-30a1,1,0,0,0,0-1.74ZM70,125.6,20,96.75,70,67.9l50,28.85Z"/><path class="cls-3" d="M90.94,82.41a10.09,10.09,0,0,1-9.87-7.79h-.28a11.17,11.17,0,0,1,0-22.34,10.92,10.92,0,0,1,3.77.66h0A14.27,14.27,0,1,1,101,73.39,10.13,10.13,0,0,1,90.94,82.41Z"/><path class="cls-2" d="M97.15,44.38a15.24,15.24,0,0,0-13.06,7.36,11.79,11.79,0,0,0-3.3-.46,12.17,12.17,0,0,0-.49,24.33,11.16,11.16,0,0,0,21.63-1.45,15.27,15.27,0,0,0-4.78-29.78Zm3.6,28.05-.65.18-.07.67a9.15,9.15,0,0,1-18,1.11l-.19-.77H80.79a10.17,10.17,0,0,1,0-20.34,9.89,9.89,0,0,1,3.42.6l.82.3.41-.77a13.27,13.27,0,1,1,15.31,19Z"/><path class="cls-3" d="M89.67,121.86A8,8,0,0,1,84,119.49a7.65,7.65,0,0,1-1.59-2.27,10.06,10.06,0,0,1-3,.46A10.34,10.34,0,0,1,72.05,100a10.41,10.41,0,0,1,7.31-3,10.29,10.29,0,0,1,5,1.31h0a7.35,7.35,0,0,1,10.85,9.59l.14.14a8.09,8.09,0,0,1-5.72,13.81Z"/><path class="cls-2" d="M96.48,107.75A8.36,8.36,0,0,0,84.3,97.14a11.34,11.34,0,1,0-2.46,21.25,8.69,8.69,0,0,0,1.4,1.81,9.09,9.09,0,0,0,13.24-12.45Zm-1.8,11a7.1,7.1,0,0,1-10,0,6.82,6.82,0,0,1-1.39-2l-.37-.79-.83.26a9.34,9.34,0,1,1,1.85-17.08l.58.33L85,99.1a6.35,6.35,0,0,1,9.37,8.29l-.41.67.7.7a7.09,7.09,0,0,1,0,10Z"/><path class="cls-3" d="M67.34,94.38a6.11,6.11,0,0,1-1.67-12,4.35,4.35,0,0,1,8.55-.53h.12a4.78,4.78,0,1,1,0,9.56,4.51,4.51,0,0,1-1.61-.28A6.08,6.08,0,0,1,67.34,94.38Z"/><path class="cls-2" d="M75,80.9a5.35,5.35,0,0,0-10.17.73,7.11,7.11,0,1,0,8.4,10.69,6.23,6.23,0,0,0,1.15.11A5.78,5.78,0,0,0,75,80.9ZM77,89.33a3.79,3.79,0,0,1-2.68,1.1,3.61,3.61,0,0,1-1.27-.22l-.82-.3-.4.77a5.12,5.12,0,1,1-5.91-7.33l.65-.18.07-.67a3.35,3.35,0,0,1,6.59-.4l.18.77h.91A3.79,3.79,0,0,1,77,89.33Z"/><path class="cls-2" d="M31.42,73.35l-.24-2A22.93,22.93,0,0,0,34,70.84l.49,1.94A23.33,23.33,0,0,1,31.42,73.35Z"/><path class="cls-2" d="M40.4,70.53l-.91-1.78a33.35,33.35,0,0,0,5-3.18l1.22,1.58A34.14,34.14,0,0,1,40.4,70.53ZM50.34,63,48.9,61.59A47.82,47.82,0,0,0,52.76,57l1.6,1.19A49.24,49.24,0,0,1,50.34,63ZM57.78,53l-1.73-1a48.31,48.31,0,0,0,2.61-5.18l.07-.17,1.85.78-.08.18A50.41,50.41,0,0,1,57.78,53ZM54,50.12A17.73,17.73,0,0,1,52.2,50a14.19,14.19,0,0,1-1.57-.24l.39-2q.69.14,1.38.21a16.71,16.71,0,0,0,4.34-.15l.32,2A20.06,20.06,0,0,1,54,50.12Zm9.13-2.22-.88-1.79a23.08,23.08,0,0,0,4.86-3.23l1.31,1.51A24.68,24.68,0,0,1,63.12,47.9Zm-18.46-.55A16.46,16.46,0,0,1,40,42.84l1.66-1.11a14.4,14.4,0,0,0,4.06,3.94Zm17.68-6-2-.31A19,19,0,0,0,60.61,38a16.85,16.85,0,0,0-.21-2.69l2-.32a19.73,19.73,0,0,1,.23,3A20.61,20.61,0,0,1,62.34,41.38Zm10.33-1.66-1.62-1.18a32.6,32.6,0,0,0,3-5.08l1.8.87A35,35,0,0,1,72.67,39.72Zm-34.93-3q-.06-.6-.06-1.2a13.26,13.26,0,0,1,1.14-5.26l1.83.81a11.16,11.16,0,0,0-1,4.45c0,.33,0,.67,0,1ZM58.4,30a12.38,12.38,0,0,0-4-3.88l1-1.72a14.48,14.48,0,0,1,4.7,4.49ZM44,26.67,42.81,25.1a10.72,10.72,0,0,1,6-2.33H49l.08,2H49A8.82,8.82,0,0,0,44,26.67Z"/><path class="cls-2" d="M82.43,26.4a4.51,4.51,0,1,0-5.49,3.24A4.5,4.5,0,0,0,82.43,26.4Z"/></g></svg>