<svg id="icons_final_copy" data-name="icons final copy" xmlns="http://www.w3.org/2000/svg" viewBox="0 0 140 140"><defs><style>.cls-1{fill:#25324e;}.cls-2{fill:#efbd47;}</style></defs><title>icon_a4</title><g id="_4" data-name="4"><path class="cls-1" d="M122.46,95.88,104.39,85.45,88.31,76.17V56.75a1,1,0,0,0-.5-.87l-.75-.43L70.49,45.88a1,1,0,0,0-1,0L18.29,75.45l-.75.43a1,1,0,0,0-.5.87v20a1,1,0,0,0,.5.87l17.32,10,18.07,10.43,16.56,9.57a1,1,0,0,0,.5.13.91.91,0,0,0,.5-.13l16.57-9.57,17.33-10,18.07-10.43a1,1,0,0,0,0-1.74Zm-35.14-18,15.32,8.85L87.32,95.59,72,86.75Zm-2,18.85L70,105.59,54.68,96.76h0L70,87.91h0ZM34.36,105,19,96.17V78.49l15.32,8.84ZM20.05,76.75,70,47.9l15.32,8.85L35.36,85.59ZM36.36,87.33l50-28.84V76.17L70.24,85.45l-17.31,10-1.5.87L36.36,105Zm16.31,28.26-15.3-8.84,15.31-8.84L68,106.75ZM70,125.6l-15.31-8.85L70,107.91l15.32,8.84Zm17.33-10L72,106.75l15.33-8.84,15.32,8.84Zm17.32-10L89.32,96.75l15.32-8.84L120,96.75Z"/><polygon class="cls-2" points="52.68 56.75 52.68 36.75 70 26.75 87.32 36.75 87.32 56.75 70 66.75 52.68 56.75"/><path class="cls-1" d="M54.78,59.12l-2.6-1.5a1,1,0,0,1-.5-.87v-3h2v2.42l2.1,1.21Z"/><rect class="cls-1" x="51.68" y="44.42" width="2" height="4.67"/><path class="cls-1" d="M54.68,36.75l1.09.63-1,1.74-1.09-.63v1.26h-2v-3a1,1,0,0,1,.5-.87l2.59-1.5,1,1.74Z"/><rect class="cls-1" x="59.01" y="30.75" width="4.67" height="2" transform="translate(-7.66 34.92) rotate(-29.99)"/><path class="cls-1" d="M67.9,29.12l-1-1.74,2.6-1.5a1,1,0,0,1,1,0l2.6,1.5-1,1.74L70,27.9Z"/><rect class="cls-1" x="77.66" y="29.42" width="2" height="4.67" transform="translate(11.84 84) rotate(-60)"/><path class="cls-1" d="M88.31,36.75v3h-2V38.49l-1.08.63-1-1.74,1.08-.63-1.08-.63,1-1.74,2.58,1.5A1,1,0,0,1,88.31,36.75Z"/><rect class="cls-1" x="86.32" y="44.42" width="2" height="4.67"/><path class="cls-1" d="M85.22,59.12l-1-1.74,2.1-1.21V53.75h2v3a1,1,0,0,1-.5.87Z"/><rect class="cls-1" x="76.33" y="60.75" width="4.67" height="2" transform="translate(-20.34 47.59) rotate(-29.99)"/><path class="cls-1" d="M73.1,66.12l-2.61,1.5a.91.91,0,0,1-.5.13,1,1,0,0,1-.5-.13l-2.59-1.5,1-1.74L69,65V63.75h2V65l1.11-.64Z"/><rect class="cls-1" x="60.34" y="59.42" width="2" height="4.67" transform="translate(-22.81 84) rotate(-60)"/><rect class="cls-1" x="60.34" y="39.42" width="2" height="4.67" transform="translate(-5.48 74) rotate(-60)"/><rect class="cls-1" x="76.33" y="40.75" width="4.67" height="2" transform="translate(-10.34 44.92) rotate(-29.99)"/><polygon class="cls-1" points="73.09 46.12 71 47.33 71 49.75 69 49.75 69 47.33 66.91 46.12 67.91 44.38 70 45.6 72.09 44.38 73.09 46.12"/><rect class="cls-1" x="69" y="54.42" width="2" height="4.67"/><polygon class="cls-2" points="35.36 66.75 35.36 46.75 52.68 36.75 70 46.75 70 66.75 52.68 76.75 35.36 66.75"/><path class="cls-1" d="M37.46,69.12l-2.6-1.5a1,1,0,0,1-.5-.87v-3h2v2.42l2.1,1.21Z"/><rect class="cls-1" x="34.36" y="54.42" width="2" height="4.67"/><path class="cls-1" d="M37.36,46.75l1.09.63-1,1.74-1.1-.63v1.26h-2v-3a1,1,0,0,1,.5-.87l2.6-1.5,1,1.74Z"/><rect class="cls-1" x="41.69" y="40.75" width="4.67" height="2" transform="translate(-14.98 27.6) rotate(-29.99)"/><path class="cls-1" d="M50.58,39.12l-1-1.74,2.6-1.5a1,1,0,0,1,1,0l2.6,1.5-1,1.74-2.1-1.22Z"/><rect class="cls-1" x="60.34" y="39.42" width="2" height="4.67" transform="translate(-5.48 74) rotate(-60)"/><path class="cls-1" d="M71,46.75v3H69V48.49l-1.09.63-1-1.74L68,46.75l-1.09-.63,1-1.74,2.59,1.5A1,1,0,0,1,71,46.75Z"/><rect class="cls-1" x="69" y="54.42" width="2" height="4.67"/><path class="cls-1" d="M67.9,69.12l-1-1.74L69,66.17V63.75h2v3a1,1,0,0,1-.5.87Z"/><rect class="cls-1" x="59.01" y="70.75" width="4.67" height="2" transform="translate(-27.65 40.27) rotate(-29.99)"/><path class="cls-1" d="M55.77,76.12l-2.6,1.5a1,1,0,0,1-.5.13,1,1,0,0,1-.5-.13l-2.59-1.5,1-1.74,1.09.64V73.75h2V75l1.1-.64Z"/><rect class="cls-1" x="43.02" y="69.42" width="2" height="4.67" transform="translate(-40.13 74) rotate(-60)"/><rect class="cls-1" x="43.02" y="49.42" width="2" height="4.67" transform="translate(-22.81 64) rotate(-60)"/><rect class="cls-1" x="59.01" y="50.75" width="4.67" height="2" transform="translate(-17.66 37.6) rotate(-29.99)"/><polygon class="cls-1" points="55.77 56.12 53.67 57.33 53.67 59.75 51.67 59.75 51.67 57.33 49.58 56.12 50.58 54.38 52.67 55.6 54.77 54.38 55.77 56.12"/><rect class="cls-1" x="51.68" y="64.42" width="2" height="4.67"/><polygon class="cls-2" points="52.68 36.75 52.68 16.75 70 6.75 87.32 16.75 87.32 36.75 70 46.75 52.68 36.75"/><path class="cls-1" d="M54.78,39.12l-2.6-1.5a1,1,0,0,1-.5-.87v-3h2v2.42l2.1,1.21Z"/><rect class="cls-1" x="51.68" y="24.42" width="2" height="4.67"/><path class="cls-1" d="M54.68,16.75l1.09.63-1,1.74-1.09-.63v1.26h-2v-3a1,1,0,0,1,.5-.87l2.59-1.5,1,1.74Z"/><rect class="cls-1" x="59.01" y="10.75" width="4.67" height="2" transform="translate(2.34 32.24) rotate(-29.99)"/><path class="cls-1" d="M67.9,9.12l-1-1.74,2.6-1.5a1,1,0,0,1,1,0l2.6,1.5-1,1.74L70,7.9Z"/><rect class="cls-1" x="77.66" y="9.42" width="2" height="4.67" transform="translate(29.16 74) rotate(-60)"/><path class="cls-1" d="M88.31,16.75v3h-2V18.49l-1.08.63-1-1.74,1.08-.63-1.08-.63,1-1.74,2.58,1.5A1,1,0,0,1,88.31,16.75Z"/><rect class="cls-1" x="86.32" y="24.42" width="2" height="4.67"/><path class="cls-1" d="M85.22,39.12l-1-1.74,2.1-1.21V33.75h2v3a1,1,0,0,1-.5.87Z"/><rect class="cls-1" x="76.33" y="40.75" width="4.67" height="2" transform="translate(-10.34 44.91) rotate(-29.99)"/><path class="cls-1" d="M73.1,46.12l-2.61,1.5a.91.91,0,0,1-.5.13,1,1,0,0,1-.5-.13l-2.59-1.5,1-1.74L69,45V43.75h2V45l1.11-.64Z"/><rect class="cls-1" x="60.34" y="39.42" width="2" height="4.67" transform="translate(-5.49 74) rotate(-60)"/><rect class="cls-1" x="60.34" y="19.42" width="2" height="4.67" transform="translate(11.84 64) rotate(-60)"/><rect class="cls-1" x="76.33" y="20.75" width="4.67" height="2" transform="translate(-0.34 42.24) rotate(-29.99)"/><polygon class="cls-1" points="73.09 26.12 71 27.33 71 29.75 69 29.75 69 27.33 66.91 26.12 67.91 24.38 70 25.6 72.09 24.38 73.09 26.12"/><rect class="cls-1" x="69" y="34.42" width="2" height="4.67"/><path class="cls-1" d="M70.87,127.25l-1.74-1,3-5.2,1.74,1Zm6-10.39-1.74-1,3-5.2,1.74,1Zm6-10.39-1.74-1,3-5.2,1.74,1Zm6-10.4-1.74-1,3-5.19,1.74,1Zm6-10.39-1.74-1,3-5.2,1.74,1Zm6-10.39-1.74-1,3-5.2,1.74,1Zm6-10.39-1.74-1,3-5.2,1.74,1Zm6-10.4-1.74-1,3-5.19,1.74,1Z"/><path class="cls-1" d="M123.61,42.91a4.51,4.51,0,1,0-6.16,1.65A4.51,4.51,0,0,0,123.61,42.91Z"/></g></svg>