<svg id="icons_final_copy" data-name="icons final copy" xmlns="http://www.w3.org/2000/svg" viewBox="0 0 140 140"><defs><style>.cls-1{fill:#efbd47;}.cls-2{fill:#25324e;}</style></defs><title>icon_a3</title><g id="_3" data-name="3"><polygon class="cls-1" points="70 26.75 87.32 36.75 87.32 56.75 70 46.75 70 26.75"/><path class="cls-2" d="M122.46,95.88l-16.82-9.71V26.75a1,1,0,0,0-.5-.87l-17.32-10a1,1,0,0,0-1,0l-17.32,10a1,1,0,0,0-.5.87V46.28L52.65,60.44c-.11.94-.17,1.88-.19,2.82L70.11,48,85.6,56.91l-27.72,24c.37.56.75,1.11,1.16,1.65L73.58,70l1.6-1.39,11.14-9.64V76.17l-1,.58L69.5,85.88a1,1,0,0,0-.5.87v6.62c.66.57,1.33,1.12,2,1.65V88.49l14.31,8.26,1,.58v6c.67.22,1.34.43,2,.62v-6.6l15.32-8.84V106a38.26,38.26,0,0,0,5.2-.49l13.62-7.86a1,1,0,0,0,0-1.74Zm-35.14-78,15.32,8.85L87.32,35.59,72,26.75ZM71,46.17V28.49l15.32,8.84V55Zm27.48,43L88.32,95l-1,.57-1-.58L72,86.75l14.31-8.27,1-.58,1,.58,14.32,8.27ZM103.64,85,88.32,76.17V37.33l15.32-8.85Zm2,20V88.48L120,96.75ZM88.32,115v-3.82c-.66-.17-1.32-.35-2-.55V115l-10.79-6.23-.2-.12L72,106.75l-1-.58v-2.54c-.68-.43-1.34-.89-2-1.36v3.9L53.68,115V87.21l.06,0-.31-.41c-.31-.41-.61-.83-.9-1.25L37.08,76.59,45.86,69c-.13-.8-.22-1.61-.28-2.42L34.7,76a1,1,0,0,0-.34.76v9.42L17.54,95.88a1,1,0,0,0,0,1.74l52,30a1,1,0,0,0,.5.13,1,1,0,0,0,.5-.13l25.91-15q-1.59-.16-3.24-.45Zm-36.64,0-15.32-8.85V78.49l15.32,8.84ZM70,125.6l-15.32-8.85L70,107.91l15.32,8.84Z"/><path class="cls-2" d="M119.62,88.34a7.51,7.51,0,0,0-2.57-.33l-.26-2a9.39,9.39,0,0,1,3.36.38Z"/><path class="cls-2" d="M102.36,110.51a49,49,0,0,1-5.24-.28l.2-2a48.5,48.5,0,0,0,5.86.26l0,2Zm7-.53-.31-2a35.2,35.2,0,0,0,5.66-1.35l.63,1.9A38.14,38.14,0,0,1,109.32,110Zm-18.22-.71c-1.95-.42-3.93-1-5.88-1.58l.61-1.9c1.89.61,3.81,1.12,5.69,1.53ZM121,106l-1-1.72a16.32,16.32,0,0,0,4.34-3.57l1.55,1.28A18.49,18.49,0,0,1,121,106Zm-41.42-.53a54.52,54.52,0,0,1-5.4-2.84l1-1.72a50.52,50.52,0,0,0,5.2,2.73ZM69.08,99.24c-1.58-1.2-3.15-2.51-4.66-3.91l1.36-1.47c1.46,1.35,3,2.63,4.51,3.79ZM126.17,96a4.81,4.81,0,0,0-.1-.84,9.07,9.07,0,0,0-1.92-4l1.52-1.3A11,11,0,0,1,128,94.71a6.8,6.8,0,0,1,.15,1.18Zm-66-5c-1.32-1.47-2.63-3-3.89-4.66l1.58-1.22c1.23,1.58,2.5,3.11,3.79,4.53Zm-7.33-9.72a38,38,0,0,1-2.63-5.56l1.87-.7a35.48,35.48,0,0,0,2.49,5.26ZM48.54,69.81A33.49,33.49,0,0,1,48,63.67h2a32.09,32.09,0,0,0,.53,5.77Zm2-11.91-2-.37c.12-.61.25-1.22.4-1.84a24.5,24.5,0,0,1,1.42-4.1l1.82.82a22.52,22.52,0,0,0-1.29,3.76C50.74,56.75,50.62,57.33,50.51,57.9Z"/><path class="cls-2" d="M59.56,48.17a4.51,4.51,0,1,0-6.37-.45A4.51,4.51,0,0,0,59.56,48.17Z"/></g></svg>