<svg xmlns="http://www.w3.org/2000/svg" viewBox="0 0 97.21 97.84"><defs><style>.cls-1{fill:#fff;}</style></defs><title>logomark</title><g id="Layer_2" data-name="Layer 2"><g id="tall_full" data-name="tall full"><g id="outline"><g id="logo"><path class="cls-1" d="M96.39,15.38a9.87,9.87,0,0,0-3.15-3.66,14.7,14.7,0,0,0-5-2.26A21.37,21.37,0,0,0,82,8.87a25,25,0,0,0-5.64.92,24.7,24.7,0,0,0-5.07,2.06,20.87,20.87,0,0,0-4.19,3,15.35,15.35,0,0,0-3,3.69l-16.73.68a7.26,7.26,0,0,0,0-1.05,7.87,7.87,0,0,0-.18-1,7.28,7.28,0,0,0-.32-.93,5.92,5.92,0,0,0-.44-.87L66.61,2.24,63.7,0,43.37,12.52a11.84,11.84,0,0,0-1.57-.7A13.48,13.48,0,0,0,40,11.34a15.19,15.19,0,0,0-2-.26,16.75,16.75,0,0,0-2.13,0,22.4,22.4,0,0,0-5.82,1.09,25.11,25.11,0,0,0-5.35,2.49,21.59,21.59,0,0,0-4.4,3.57,15,15,0,0,0-2.91,4.37A9,9,0,0,0,16.71,27a6.87,6.87,0,0,0,1.54,3.71,8.79,8.79,0,0,0,3.66,2.55,14.85,14.85,0,0,0,5.5.91,21.37,21.37,0,0,0,5.51-.82,24.25,24.25,0,0,0,5.22-2.13,22.88,22.88,0,0,0,4.44-3.15,17.24,17.24,0,0,0,3.19-3.84l1.69,0h0l15.24-.31c0,.32,0,.64.1.95a7.62,7.62,0,0,0,.21.92,7,7,0,0,0,.3.88,8.32,8.32,0,0,0,.41.85L29.84,49.46a13.17,13.17,0,0,0-1.59-.81,13.33,13.33,0,0,0-1.75-.6,16.48,16.48,0,0,0-1.93-.38,19.61,19.61,0,0,0-2.07-.14,21.17,21.17,0,0,0-6.52,1A25.38,25.38,0,0,0,4.75,55.81a20.45,20.45,0,0,0-3.56,5.57A14.44,14.44,0,0,0,0,67.24a10.42,10.42,0,0,0,1.43,5.09,10.31,10.31,0,0,0,3.86,3.72,14.15,14.15,0,0,0,6.08,1.67,20,20,0,0,0,5.93-.57,24.16,24.16,0,0,0,5.75-2.22,25.7,25.7,0,0,0,5.06-3.55A22.78,22.78,0,0,0,32,66.85l19.77,1c0,.22,0,.44.08.66s.06.44.1.65.09.43.14.65.11.42.17.63L25.42,88.14l6.17,9.7L58.83,78.52a16.46,16.46,0,0,0,1.92,1,19.47,19.47,0,0,0,2.11.76,20.85,20.85,0,0,0,2.3.54,21.51,21.51,0,0,0,2.46.28,24,24,0,0,0,8.28-1,24.4,24.4,0,0,0,7.28-3.55,21,21,0,0,0,5.34-5.48,16.16,16.16,0,0,0,2.57-6.69,13.23,13.23,0,0,0-.7-6.52,13.6,13.6,0,0,0-3.51-5.16,16.67,16.67,0,0,0-5.59-3.4,21.14,21.14,0,0,0-7.1-1.26,24.28,24.28,0,0,0-6.11.73,24.88,24.88,0,0,0-5.58,2.14,23.21,23.21,0,0,0-4.75,3.32,20,20,0,0,0-3.61,4.32l-19.39-.37c0-.29,0-.58,0-.86s-.06-.56-.11-.84-.1-.54-.16-.8-.14-.53-.23-.78L68.45,31.84a14.64,14.64,0,0,0,1.85.77,17.69,17.69,0,0,0,2.06.58,20.13,20.13,0,0,0,2.26.34,21.59,21.59,0,0,0,2.44.11,25.24,25.24,0,0,0,7.17-1.15,24.22,24.22,0,0,0,6.25-3A17.88,17.88,0,0,0,95,25.22a11.28,11.28,0,0,0,2.12-5A8.29,8.29,0,0,0,96.39,15.38ZM39.25,21.92a6.81,6.81,0,0,1-1.37,2.29,10.47,10.47,0,0,1-2.27,1.93,12.49,12.49,0,0,1-2.84,1.33,11,11,0,0,1-3.08.54A7.48,7.48,0,0,1,27,27.6a4.56,4.56,0,0,1-1.85-1.21,3.51,3.51,0,0,1-.83-1.81,4.4,4.4,0,0,1,.31-2.21A7.36,7.36,0,0,1,26,20.16a10.48,10.48,0,0,1,2.22-1.82A12.22,12.22,0,0,1,31,17.07a11.11,11.11,0,0,1,3-.54,7.56,7.56,0,0,1,2.65.33A4.52,4.52,0,0,1,38.47,18a3.38,3.38,0,0,1,1,1.74A4,4,0,0,1,39.25,21.92ZM25.47,62.2a9.52,9.52,0,0,1-1.69,3,11.94,11.94,0,0,1-2.66,2.39,12.58,12.58,0,0,1-3.27,1.56,10,10,0,0,1-3.48.47,7,7,0,0,1-3-.76,5,5,0,0,1-2.76-4.24,7,7,0,0,1,.51-2.92,9.87,9.87,0,0,1,1.75-2.83,13,13,0,0,1,2.58-2.25,12.64,12.64,0,0,1,3.11-1.47,10.18,10.18,0,0,1,3.31-.49,7.25,7.25,0,0,1,2.93.63,5.31,5.31,0,0,1,2,1.62,5,5,0,0,1,.95,2.39A6.59,6.59,0,0,1,25.47,62.2Zm36.09,1.21A8.5,8.5,0,0,1,63,60.32a10.41,10.41,0,0,1,2.55-2.44,12.07,12.07,0,0,1,7.1-2.14,10.36,10.36,0,0,1,3.57.7A8.19,8.19,0,0,1,79,58.21a6.55,6.55,0,0,1,1.89,5.84,8.27,8.27,0,0,1-1.34,3.24,10.69,10.69,0,0,1-2.62,2.62,12.34,12.34,0,0,1-3.52,1.7,11.83,11.83,0,0,1-4,.5,10,10,0,0,1-3.67-.84,8,8,0,0,1-2.69-2,6.48,6.48,0,0,1-1.45-2.72A6.73,6.73,0,0,1,61.56,63.41Zm26.65-43a5.75,5.75,0,0,1-1.1,2.45A9.25,9.25,0,0,1,84.88,25a11.93,11.93,0,0,1-3,1.44,12.55,12.55,0,0,1-3.47.58,10.29,10.29,0,0,1-3.24-.43,6.82,6.82,0,0,1-2.4-1.3,4.56,4.56,0,0,1-1.36-1.93A4.3,4.3,0,0,1,71.27,21a6,6,0,0,1,1.18-2.36,9.6,9.6,0,0,1,2.18-1.95,12.31,12.31,0,0,1,2.88-1.36,12.55,12.55,0,0,1,3.31-.58A10,10,0,0,1,84,15a7.15,7.15,0,0,1,2.45,1.17,4.75,4.75,0,0,1,1.5,1.86A4.19,4.19,0,0,1,88.21,20.44Z"/></g></g></g></g></svg>