<svg xmlns="http://www.w3.org/2000/svg" viewBox="0 0 457.72 97.83"><defs><style>.cls-1{isolation:isolate;}.cls-2{fill:#0a0a0a;}</style></defs><title>rgb_wide_png</title><g id="Layer_2" data-name="Layer 2"><g id="wide"><g id="outline"><g id="logo" class="cls-1"><path class="cls-2" d="M96.39,15.38a9.66,9.66,0,0,0-3.16-3.66,14.61,14.61,0,0,0-5-2.26A21,21,0,0,0,82,8.87a25.07,25.07,0,0,0-5.65.92,24.7,24.7,0,0,0-5.07,2.06,20.48,20.48,0,0,0-4.19,3,14.88,14.88,0,0,0-3,3.69l-16.73.68a7.25,7.25,0,0,0,0-1.05,6.41,6.41,0,0,0-.18-1,7.39,7.39,0,0,0-.31-.94,7.71,7.71,0,0,0-.44-.86L66.6,2.24,63.7,0,43.36,12.52a11.28,11.28,0,0,0-1.57-.7A13.06,13.06,0,0,0,40,11.34a13.43,13.43,0,0,0-2-.26,16.71,16.71,0,0,0-2.13,0,22.4,22.4,0,0,0-5.82,1.09,25.34,25.34,0,0,0-5.35,2.49,22.15,22.15,0,0,0-4.4,3.57,15.16,15.16,0,0,0-2.91,4.37A9.2,9.2,0,0,0,16.7,27a6.8,6.8,0,0,0,1.55,3.71,8.85,8.85,0,0,0,3.65,2.55,14.85,14.85,0,0,0,5.5.91,21.81,21.81,0,0,0,5.51-.82,24.25,24.25,0,0,0,5.22-2.13,22.88,22.88,0,0,0,4.44-3.15,17.24,17.24,0,0,0,3.19-3.84l1.7,0h0l15.24-.3a5.88,5.88,0,0,0,.1.94,9.4,9.4,0,0,0,.2.92,9.18,9.18,0,0,0,.31.88c.12.29.26.57.41.85L29.82,49.46a12.33,12.33,0,0,0-1.58-.81,13,13,0,0,0-1.76-.59,14.18,14.18,0,0,0-1.92-.38,17.23,17.23,0,0,0-2.07-.15,20.89,20.89,0,0,0-6.52,1,25.13,25.13,0,0,0-6.09,2.88,24.57,24.57,0,0,0-5.13,4.38,20,20,0,0,0-3.56,5.57A14.12,14.12,0,0,0,0,67.24a10.38,10.38,0,0,0,1.42,5.09,10.31,10.31,0,0,0,3.86,3.72,14.15,14.15,0,0,0,6.08,1.68,20.25,20.25,0,0,0,5.92-.57A24.67,24.67,0,0,0,23,74.94a25.75,25.75,0,0,0,5.06-3.56A22.3,22.3,0,0,0,32,66.84l19.77,1c0,.22,0,.44.07.66s.06.44.1.65.09.43.14.65.11.42.17.63L25.41,88.14l6.17,9.69,27.23-19.3a18.3,18.3,0,0,0,1.93,1,19.49,19.49,0,0,0,2.11.77,18.79,18.79,0,0,0,2.3.53,21.76,21.76,0,0,0,2.46.29,24.2,24.2,0,0,0,8.28-1,24.48,24.48,0,0,0,7.29-3.56,20.83,20.83,0,0,0,5.33-5.48,16.16,16.16,0,0,0,2.57-6.69,13.23,13.23,0,0,0-.7-6.52,13.69,13.69,0,0,0-3.5-5.16,16.7,16.7,0,0,0-5.6-3.39,20.85,20.85,0,0,0-7.1-1.26,23.83,23.83,0,0,0-6.11.72,25.37,25.37,0,0,0-5.58,2.14,23.21,23.21,0,0,0-4.75,3.32,20,20,0,0,0-3.61,4.32l-19.39-.37c0-.29,0-.58,0-.86s-.06-.56-.11-.84-.1-.54-.16-.8-.14-.53-.23-.78L68.45,31.84a14.49,14.49,0,0,0,1.84.77,18.44,18.44,0,0,0,2.07.58,19.46,19.46,0,0,0,2.26.34,21.35,21.35,0,0,0,2.43.1,24.68,24.68,0,0,0,7.18-1.15,24,24,0,0,0,6.24-3A17.79,17.79,0,0,0,95,25.21a11.34,11.34,0,0,0,2.11-5A8.27,8.27,0,0,0,96.39,15.38ZM39.25,21.92a7.08,7.08,0,0,1-1.37,2.29,10.72,10.72,0,0,1-2.27,1.93,12.57,12.57,0,0,1-2.85,1.33,10.88,10.88,0,0,1-3.08.53,7.28,7.28,0,0,1-2.7-.4,4.44,4.44,0,0,1-1.84-1.22,3.36,3.36,0,0,1-.83-1.81,4.27,4.27,0,0,1,.31-2.2A7,7,0,0,1,26,20.16a10.42,10.42,0,0,1,2.21-1.82A12.06,12.06,0,0,1,31,17.07a11,11,0,0,1,2.94-.54,7.87,7.87,0,0,1,2.66.32A4.8,4.8,0,0,1,38.47,18a3.45,3.45,0,0,1,1,1.75A4.18,4.18,0,0,1,39.25,21.92ZM25.46,62.19a9.74,9.74,0,0,1-1.68,3,12.22,12.22,0,0,1-2.67,2.39,12.32,12.32,0,0,1-3.27,1.57,10.44,10.44,0,0,1-3.48.47,7,7,0,0,1-3-.76,5.18,5.18,0,0,1-2-1.77,5,5,0,0,1-.79-2.48,6.79,6.79,0,0,1,.51-2.92,9.92,9.92,0,0,1,1.74-2.83,12.85,12.85,0,0,1,5.69-3.72,10.5,10.5,0,0,1,3.31-.49,7.39,7.39,0,0,1,2.93.63,5.31,5.31,0,0,1,2,1.62,5.06,5.06,0,0,1,1,2.39A6.55,6.55,0,0,1,25.46,62.19Zm36.1,1.21A8.35,8.35,0,0,1,63,60.32a10.41,10.41,0,0,1,2.55-2.44,12.2,12.2,0,0,1,3.33-1.6,11.86,11.86,0,0,1,3.77-.53,10.46,10.46,0,0,1,3.58.69A8.29,8.29,0,0,1,79,58.21a6.75,6.75,0,0,1,1.64,2.62,6.54,6.54,0,0,1,.24,3.22,8,8,0,0,1-1.34,3.23,10.39,10.39,0,0,1-2.62,2.63,12.31,12.31,0,0,1-3.51,1.71,12.15,12.15,0,0,1-4,.5,9.94,9.94,0,0,1-3.68-.85,7.77,7.77,0,0,1-2.68-2,6.53,6.53,0,0,1-1.48-5.92Zm26.64-43a5.75,5.75,0,0,1-1.1,2.45A8.9,8.9,0,0,1,84.87,25a11.86,11.86,0,0,1-3,1.44,12.62,12.62,0,0,1-3.48.58,9.9,9.9,0,0,1-3.23-.44,6.69,6.69,0,0,1-2.41-1.29,4.57,4.57,0,0,1-1.35-1.94A4.08,4.08,0,0,1,71.27,21a6,6,0,0,1,1.18-2.36,9,9,0,0,1,2.18-1.95,11.94,11.94,0,0,1,2.88-1.36,12.48,12.48,0,0,1,3.31-.58A10.2,10.2,0,0,1,84,15a7.16,7.16,0,0,1,2.45,1.18,4.68,4.68,0,0,1,1.5,1.86A4.09,4.09,0,0,1,88.2,20.44Z"/></g><g id="name"><path class="cls-2" d="M124.16,23.66h6.08L138.36,47h.13l8-23.37h6.14V67.8h-6.32V41h-.12l-6.27,19h-3.16l-6.2-19h-.12V67.8h-6.33Z"/><path class="cls-2" d="M158.88,23.66h6.33V30h-6.33Zm0,12.71h6.33V67.8h-6.33Z"/><path class="cls-2" d="M171.16,23.66h6.32V58.93c0,2.36.68,3,3.1,3.29v6c-5.82,0-9.42-1.49-9.42-8.8Z"/><path class="cls-2" d="M190.07,54.47v4.28a2.84,2.84,0,0,0,3.1,3.1c2.42,0,3-1.8,3.1-3.16h6.32a9.64,9.64,0,0,1-2.54,6.69,9.21,9.21,0,0,1-6.88,2.79,9,9,0,0,1-8.25-4.52,14,14,0,0,1-1.18-6.39V46.91a13.93,13.93,0,0,1,1.18-6.39A9,9,0,0,1,193.17,36c5.83,0,9.42,4.27,9.42,9.79v8.68Zm0-5h6.2v-3.6c0-2.35-1.18-3.59-3.1-3.59s-3.1,1.24-3.1,3.59Z"/><path class="cls-2" d="M219,45.17A3.11,3.11,0,0,0,215.74,42a3,3,0,0,0-3.1,3.16c0,1.18.31,2.29,2.66,3.22L219,49.82c4.71,1.8,6.2,5.15,6.2,8.87a9.32,9.32,0,0,1-9.42,9.48c-5,0-9.18-3.28-9.43-9.48h6c.24,1.73,1,3.53,3.41,3.53a3.42,3.42,0,0,0,3.53-3.41c0-1.74-.74-2.91-3.16-3.84l-3-1.12c-4-1.49-6.39-4.46-6.39-8.68A9.1,9.1,0,0,1,216,36c5.15,0,8.87,4,8.93,9.17Z"/><path class="cls-2" d="M229.93,26.82h6.33v9.55h3.9v5h-3.9V58.75c0,2.91,1.11,3.1,3.9,3.1V67.8h-2.6c-5.7,0-7.63-4-7.63-7.38V41.33h-3.16v-5h3.16Z"/><path class="cls-2" d="M243.26,46.91a13.8,13.8,0,0,1,1.18-6.39,9.78,9.78,0,0,1,16.49,0,13.8,13.8,0,0,1,1.18,6.39V57.26a13.86,13.86,0,0,1-1.18,6.39,9.78,9.78,0,0,1-16.49,0,13.86,13.86,0,0,1-1.18-6.39Zm6.33,11.34c0,2.36,1.18,3.6,3.1,3.6s3.1-1.24,3.1-3.6V45.91c0-2.35-1.18-3.59-3.1-3.59s-3.1,1.24-3.1,3.59Z"/><path class="cls-2" d="M267.07,36.37h6.33v3h.12a6.68,6.68,0,0,1,6-3.4c3.16,0,6.51,2,6.51,7.68V67.8h-6.32V46c0-2.3-1.12-3.72-3.1-3.72-2.36,0-3.16,1.55-3.16,4.34V67.8h-6.33Z"/><path class="cls-2" d="M297.2,54.47v4.28a2.84,2.84,0,0,0,3.1,3.1c2.42,0,3-1.8,3.1-3.16h6.33a9.6,9.6,0,0,1-2.55,6.69,9.19,9.19,0,0,1-6.88,2.79,9,9,0,0,1-8.24-4.52,13.86,13.86,0,0,1-1.18-6.39V46.91a13.8,13.8,0,0,1,1.18-6.39A9,9,0,0,1,300.3,36c5.83,0,9.43,4.27,9.43,9.79v8.68Zm0-5h6.2v-3.6c0-2.35-1.18-3.59-3.1-3.59s-3.1,1.24-3.1,3.59Z"/><path class="cls-2" d="M325,23.66h9.36c7.13,0,11.1,4.28,11.1,11.41V55.71c0,8.18-4.22,12.09-11.66,12.09H325Zm6.32,38.19h2.92c3.53,0,4.9-1.74,4.9-5.52V35.07c0-3.48-1.18-5.46-4.9-5.46h-2.92Z"/><path class="cls-2" d="M351.7,36.37H358v3.35c2.61-2.3,4.72-3.72,8.37-3.72v6.69a5,5,0,0,0-1.92-.37c-2.67,0-6.45,1.67-6.45,6.82V67.8H351.7Z"/><path class="cls-2" d="M368.63,46.91a13.94,13.94,0,0,1,1.17-6.39,9.78,9.78,0,0,1,16.49,0,13.8,13.8,0,0,1,1.18,6.39V57.26a13.86,13.86,0,0,1-1.18,6.39,9.78,9.78,0,0,1-16.49,0,14,14,0,0,1-1.17-6.39ZM375,58.25c0,2.36,1.18,3.6,3.1,3.6s3.1-1.24,3.1-3.6V45.91c0-2.35-1.18-3.59-3.1-3.59s-3.1,1.24-3.1,3.59Z"/><path class="cls-2" d="M392.43,36.37h6.33v3h.12a6.68,6.68,0,0,1,5.95-3.4c3.16,0,6.51,2,6.51,7.68V67.8H405V46c0-2.3-1.12-3.72-3.1-3.72-2.36,0-3.16,1.55-3.16,4.34V67.8h-6.33Z"/><path class="cls-2" d="M422.56,54.47v4.28a2.84,2.84,0,0,0,3.1,3.1c2.42,0,3-1.8,3.1-3.16h6.33a9.64,9.64,0,0,1-2.54,6.69,9.23,9.23,0,0,1-6.89,2.79,9,9,0,0,1-8.24-4.52,13.86,13.86,0,0,1-1.18-6.39V46.91a13.8,13.8,0,0,1,1.18-6.39A9,9,0,0,1,425.66,36c5.83,0,9.43,4.27,9.43,9.79v8.68Zm0-5h6.2v-3.6c0-2.35-1.17-3.59-3.1-3.59s-3.1,1.24-3.1,3.59Z"/><path class="cls-2" d="M451.46,45.17A3.12,3.12,0,0,0,448.23,42a3,3,0,0,0-3.1,3.16c0,1.18.31,2.29,2.67,3.22l3.72,1.49c4.71,1.8,6.2,5.15,6.2,8.87a9.32,9.32,0,0,1-9.43,9.48c-5,0-9.17-3.28-9.42-9.48h5.95c.25,1.73,1.06,3.53,3.41,3.53a3.43,3.43,0,0,0,3.54-3.41c0-1.74-.75-2.91-3.17-3.84l-3-1.12c-4-1.49-6.39-4.46-6.39-8.68a9.1,9.1,0,0,1,9.3-9.17c5.15,0,8.87,4,8.93,9.17Z"/></g></g></g></g></svg>