<svg xmlns="http://www.w3.org/2000/svg" viewBox="0 0 457.72 97.83"><defs><style>.cls-1{isolation:isolate;}.cls-2{fill:#111;}.cls-3{fill:#666;}</style></defs><title>wide_full</title><g id="Layer_2" data-name="Layer 2"><g id="wide_full" data-name="wide full"><g id="outline"><g id="logo" class="cls-1"><path class="cls-2" d="M96.39,15.38a9.66,9.66,0,0,0-3.16-3.66,14.61,14.61,0,0,0-5-2.26A21,21,0,0,0,82,8.87a25.07,25.07,0,0,0-5.65.92,24.7,24.7,0,0,0-5.07,2.06,20.48,20.48,0,0,0-4.19,3,14.88,14.88,0,0,0-3,3.69l-16.73.68a7.25,7.25,0,0,0,0-1.05,6.41,6.41,0,0,0-.18-1,7.39,7.39,0,0,0-.31-.94,7.71,7.71,0,0,0-.44-.86L66.6,2.24,63.7,0,43.36,12.52a11.28,11.28,0,0,0-1.57-.7A13.06,13.06,0,0,0,40,11.34a13.43,13.43,0,0,0-2-.26,16.71,16.71,0,0,0-2.13,0,22.4,22.4,0,0,0-5.82,1.09,25.34,25.34,0,0,0-5.35,2.49,22.15,22.15,0,0,0-4.4,3.57,15.16,15.16,0,0,0-2.91,4.37A9.2,9.2,0,0,0,16.7,27a6.8,6.8,0,0,0,1.55,3.71,8.85,8.85,0,0,0,3.65,2.55,14.85,14.85,0,0,0,5.5.91,21.81,21.81,0,0,0,5.51-.82,24.25,24.25,0,0,0,5.22-2.13,22.88,22.88,0,0,0,4.44-3.15,17.24,17.24,0,0,0,3.19-3.84l1.7,0h0l15.24-.3a5.88,5.88,0,0,0,.1.94,9.4,9.4,0,0,0,.2.92,9.18,9.18,0,0,0,.31.88c.12.29.26.57.41.85L29.82,49.46a12.33,12.33,0,0,0-1.58-.81,13,13,0,0,0-1.76-.59,14.18,14.18,0,0,0-1.92-.38,17.23,17.23,0,0,0-2.07-.15,20.89,20.89,0,0,0-6.52,1,25.13,25.13,0,0,0-6.09,2.88,24.57,24.57,0,0,0-5.13,4.38,20,20,0,0,0-3.56,5.57A14.12,14.12,0,0,0,0,67.24a10.38,10.38,0,0,0,1.42,5.09,10.31,10.31,0,0,0,3.86,3.72,14.15,14.15,0,0,0,6.08,1.68,20.25,20.25,0,0,0,5.92-.57A24.67,24.67,0,0,0,23,74.94a25.75,25.75,0,0,0,5.06-3.56A22.3,22.3,0,0,0,32,66.84l19.77,1c0,.22,0,.44.07.66s.06.44.1.65.09.43.14.65.11.42.17.63L25.41,88.14l6.17,9.69,27.23-19.3a18.3,18.3,0,0,0,1.93,1,19.49,19.49,0,0,0,2.11.77,18.79,18.79,0,0,0,2.3.53,21.76,21.76,0,0,0,2.46.29,24.2,24.2,0,0,0,8.28-1,24.48,24.48,0,0,0,7.29-3.56,20.83,20.83,0,0,0,5.33-5.48,16.16,16.16,0,0,0,2.57-6.69,13.23,13.23,0,0,0-.7-6.52,13.69,13.69,0,0,0-3.5-5.16,16.7,16.7,0,0,0-5.6-3.39,20.85,20.85,0,0,0-7.1-1.26,23.83,23.83,0,0,0-6.11.72,25.37,25.37,0,0,0-5.58,2.14,23.21,23.21,0,0,0-4.75,3.32,20,20,0,0,0-3.61,4.32l-19.39-.37c0-.29,0-.58,0-.86s-.06-.56-.11-.84-.1-.54-.16-.8-.14-.53-.23-.78L68.45,31.84a14.49,14.49,0,0,0,1.84.77,18.44,18.44,0,0,0,2.07.58,19.46,19.46,0,0,0,2.26.34,21.35,21.35,0,0,0,2.43.1,24.68,24.68,0,0,0,7.18-1.15,24,24,0,0,0,6.24-3A17.79,17.79,0,0,0,95,25.21a11.34,11.34,0,0,0,2.11-5A8.27,8.27,0,0,0,96.39,15.38ZM39.25,21.92a7.08,7.08,0,0,1-1.37,2.29,10.72,10.72,0,0,1-2.27,1.93,12.57,12.57,0,0,1-2.85,1.33,10.88,10.88,0,0,1-3.08.53,7.28,7.28,0,0,1-2.7-.4,4.44,4.44,0,0,1-1.84-1.22,3.36,3.36,0,0,1-.83-1.81,4.27,4.27,0,0,1,.31-2.2A7,7,0,0,1,26,20.16a10.42,10.42,0,0,1,2.21-1.82A12.06,12.06,0,0,1,31,17.07a11,11,0,0,1,2.94-.54,7.87,7.87,0,0,1,2.66.32A4.8,4.8,0,0,1,38.47,18a3.45,3.45,0,0,1,1,1.75A4.18,4.18,0,0,1,39.25,21.92ZM25.46,62.19a9.74,9.74,0,0,1-1.68,3,12.22,12.22,0,0,1-2.67,2.39,12.32,12.32,0,0,1-3.27,1.57,10.44,10.44,0,0,1-3.48.47,7,7,0,0,1-3-.76,5.18,5.18,0,0,1-2-1.77,5,5,0,0,1-.79-2.48,6.79,6.79,0,0,1,.51-2.92,9.92,9.92,0,0,1,1.74-2.83,12.85,12.85,0,0,1,5.69-3.72,10.5,10.5,0,0,1,3.31-.49,7.39,7.39,0,0,1,2.93.63,5.31,5.31,0,0,1,2,1.62,5.06,5.06,0,0,1,1,2.39A6.55,6.55,0,0,1,25.46,62.19Zm36.1,1.21A8.35,8.35,0,0,1,63,60.32a10.41,10.41,0,0,1,2.55-2.44,12.2,12.2,0,0,1,3.33-1.6,11.86,11.86,0,0,1,3.77-.53,10.46,10.46,0,0,1,3.58.69A8.29,8.29,0,0,1,79,58.21a6.75,6.75,0,0,1,1.64,2.62,6.54,6.54,0,0,1,.24,3.22,8,8,0,0,1-1.34,3.23,10.39,10.39,0,0,1-2.62,2.63,12.31,12.31,0,0,1-3.51,1.71,12.15,12.15,0,0,1-4,.5,9.94,9.94,0,0,1-3.68-.85,7.77,7.77,0,0,1-2.68-2,6.53,6.53,0,0,1-1.48-5.92Zm26.64-43a5.75,5.75,0,0,1-1.1,2.45A8.9,8.9,0,0,1,84.87,25a11.86,11.86,0,0,1-3,1.44,12.62,12.62,0,0,1-3.48.58,9.9,9.9,0,0,1-3.23-.44,6.69,6.69,0,0,1-2.41-1.29,4.57,4.57,0,0,1-1.35-1.94A4.08,4.08,0,0,1,71.27,21a6,6,0,0,1,1.18-2.36,9,9,0,0,1,2.18-1.95,11.94,11.94,0,0,1,2.88-1.36,12.48,12.48,0,0,1,3.31-.58A10.2,10.2,0,0,1,84,15a7.16,7.16,0,0,1,2.45,1.18,4.68,4.68,0,0,1,1.5,1.86A4.09,4.09,0,0,1,88.2,20.44Z"/></g><g id="name"><path class="cls-3" d="M126.93,78.4l-.8,2.3h-2.9l4.6-13.34h3.42l4.56,13.34h-3l-.76-2.3Zm2.56-7.76-1.86,5.52h3.7Z"/><path class="cls-3" d="M142.71,72.88h4.68v2.24h-4.68v3.34h4.68V80.7H140V67.36h7.42V69.6h-4.68Z"/><path class="cls-3" d="M155.63,80.7h-2.74V67.36H157c3.3,0,5.08,1.46,5.08,4.2a3.84,3.84,0,0,1-3.16,4l3.68,5.12h-3.32l-3.66-5.3Zm1.24-6.9c1.56,0,2.44-.76,2.44-2.1a2,2,0,0,0-2.2-2.08h-1.48V73.8Z"/><path class="cls-3" d="M170.51,80.7h-2.74V67.36h2.74Z"/><path class="cls-3" d="M178.43,78.4l-.8,2.3h-2.9l4.6-13.34h3.42l4.56,13.34h-3l-.76-2.3ZM181,70.64l-1.86,5.52h3.7Z"/><path class="cls-3" d="M199.13,78.44V80.7h-7.2V67.36h2.74V78.44Z"/><path class="cls-3" d="M216.09,80.7h-2.74V67.36h4.26c3.16,0,4.94,1.54,4.94,4.26s-1.82,4.5-4.76,4.5h-1.7Zm1.18-6.84c1.58,0,2.5-.76,2.5-2.1s-.94-2.14-2.44-2.14h-1.24v4.24Z"/><path class="cls-3" d="M230.31,80.7h-2.74V67.36h2.74V73h5.06V67.36h2.74V80.7h-2.74V75.24h-5.06Z"/><path class="cls-3" d="M255.13,69.34a6.94,6.94,0,1,1-12.08,4.76,7,7,0,0,1,12.08-4.76Zm-9.28,4.72A4.11,4.11,0,1,0,250,69.64,4.17,4.17,0,0,0,245.85,74.06Z"/><path class="cls-3" d="M266.77,80.7H264V69.6h-3.18V67.36h9.08V69.6h-3.16Z"/><path class="cls-3" d="M285.23,69.34a6.94,6.94,0,1,1-12.08,4.76,7,7,0,0,1,12.08-4.76ZM276,74.06a4.11,4.11,0,1,0,4.12-4.42A4.17,4.17,0,0,0,276,74.06Z"/><path class="cls-3" d="M305.55,73.22v.72a6.57,6.57,0,0,1-1.94,5A6.84,6.84,0,0,1,298.69,81a6.93,6.93,0,1,1,5.38-11.3L302,71.28a4,4,0,0,0-3.28-1.66,4.21,4.21,0,0,0-4.12,4.44,4.26,4.26,0,0,0,4.18,4.42,3.94,3.94,0,0,0,3-1.34,3.78,3.78,0,0,0,.82-1.68h-3.72V73.22Z"/><path class="cls-3" d="M313.87,80.7h-2.74V67.36h4.12c3.3,0,5.08,1.46,5.08,4.2a3.84,3.84,0,0,1-3.16,4l3.68,5.12h-3.32l-3.66-5.3Zm1.24-6.9c1.56,0,2.44-.76,2.44-2.1a2,2,0,0,0-2.2-2.08h-1.48V73.8Z"/><path class="cls-3" d="M328.35,78.4l-.8,2.3h-2.9l4.6-13.34h3.42l4.56,13.34h-3l-.76-2.3Zm2.56-7.76-1.86,5.52h3.7Z"/><path class="cls-3" d="M344.59,80.7h-2.74V67.36h4.26c3.16,0,4.94,1.54,4.94,4.26s-1.82,4.5-4.76,4.5h-1.7Zm1.18-6.84c1.58,0,2.5-.76,2.5-2.1s-.94-2.14-2.44-2.14h-1.24v4.24Z"/><path class="cls-3" d="M358.81,80.7h-2.74V67.36h2.74V73h5.06V67.36h2.74V80.7h-2.74V75.24h-5.06Z"/><path class="cls-3" d="M378.19,80.7h-2.74V74.82L371,67.36h3.26L376.83,72l2.54-4.62h3.2l-4.38,7.46Z"/><path class="cls-2" d="M124.16,9.77h6.08l8.12,23.37h.13l8-23.37h6.14V53.91h-6.32V27.07h-.12L140,46h-3.16l-6.2-19h-.12V53.91h-6.33Z"/><path class="cls-2" d="M158.88,9.77h6.33V16.1h-6.33Zm0,12.71h6.33V53.91h-6.33Z"/><path class="cls-2" d="M171.16,9.77h6.32V45.05c0,2.35.68,3,3.1,3.28v6c-5.82,0-9.42-1.49-9.42-8.81Z"/><path class="cls-2" d="M190.07,40.58v4.28a2.84,2.84,0,0,0,3.1,3.1c2.42,0,3-1.8,3.1-3.16h6.32a9.68,9.68,0,0,1-2.54,6.7,9.25,9.25,0,0,1-6.88,2.79,9,9,0,0,1-8.25-4.53,13.93,13.93,0,0,1-1.18-6.39V33a13.91,13.91,0,0,1,1.18-6.38,9,9,0,0,1,8.25-4.53c5.83,0,9.42,4.28,9.42,9.79v8.68Zm0-5h6.2V32c0-2.36-1.18-3.6-3.1-3.6s-3.1,1.24-3.1,3.6Z"/><path class="cls-2" d="M219,31.28a3.12,3.12,0,0,0-3.22-3.22,3,3,0,0,0-3.1,3.16c0,1.18.31,2.3,2.66,3.23L219,35.93c4.71,1.8,6.2,5.15,6.2,8.87a9.32,9.32,0,0,1-9.42,9.49c-5,0-9.18-3.29-9.43-9.49h6c.24,1.74,1,3.53,3.41,3.53a3.42,3.42,0,0,0,3.53-3.41c0-1.73-.74-2.91-3.16-3.84l-3-1.12c-4-1.48-6.39-4.46-6.39-8.68a9.1,9.1,0,0,1,9.3-9.17c5.15,0,8.87,4,8.93,9.17Z"/><path class="cls-2" d="M229.93,12.93h6.33v9.55h3.9v5h-3.9V44.86c0,2.92,1.11,3.1,3.9,3.1v5.95h-2.6c-5.7,0-7.63-4-7.63-7.37V27.44h-3.16v-5h3.16Z"/><path class="cls-2" d="M243.26,33a13.79,13.79,0,0,1,1.18-6.38,9.77,9.77,0,0,1,16.49,0A13.79,13.79,0,0,1,262.11,33V43.37a13.8,13.8,0,0,1-1.18,6.39,9.77,9.77,0,0,1-16.49,0,13.8,13.8,0,0,1-1.18-6.39Zm6.33,11.35c0,2.35,1.18,3.59,3.1,3.59s3.1-1.24,3.1-3.59V32c0-2.36-1.18-3.6-3.1-3.6s-3.1,1.24-3.1,3.6Z"/><path class="cls-2" d="M267.07,22.48h6.33v3h.12a6.69,6.69,0,0,1,6-3.41c3.16,0,6.51,2.05,6.51,7.69V53.91h-6.32V32.15c0-2.29-1.12-3.72-3.1-3.72-2.36,0-3.16,1.55-3.16,4.34V53.91h-6.33Z"/><path class="cls-2" d="M297.2,40.58v4.28a2.84,2.84,0,0,0,3.1,3.1c2.42,0,3-1.8,3.1-3.16h6.33a9.64,9.64,0,0,1-2.55,6.7,9.23,9.23,0,0,1-6.88,2.79,9,9,0,0,1-8.24-4.53,13.8,13.8,0,0,1-1.18-6.39V33a13.79,13.79,0,0,1,1.18-6.38,9,9,0,0,1,8.24-4.53c5.83,0,9.43,4.28,9.43,9.79v8.68Zm0-5h6.2V32c0-2.36-1.18-3.6-3.1-3.6s-3.1,1.24-3.1,3.6Z"/><path class="cls-2" d="M325,9.77h9.36c7.13,0,11.1,4.28,11.1,11.41V41.82c0,8.19-4.22,12.09-11.66,12.09H325ZM331.36,48h2.92c3.53,0,4.9-1.73,4.9-5.52V21.18c0-3.47-1.18-5.46-4.9-5.46h-2.92Z"/><path class="cls-2" d="M351.7,22.48H358v3.35c2.61-2.29,4.72-3.72,8.37-3.72v6.7a5,5,0,0,0-1.92-.38c-2.67,0-6.45,1.68-6.45,6.82V53.91H351.7Z"/><path class="cls-2" d="M368.63,33a13.92,13.92,0,0,1,1.17-6.38,9.77,9.77,0,0,1,16.49,0A13.79,13.79,0,0,1,387.47,33V43.37a13.8,13.8,0,0,1-1.18,6.39,9.77,9.77,0,0,1-16.49,0,13.94,13.94,0,0,1-1.17-6.39ZM375,44.37c0,2.35,1.18,3.59,3.1,3.59s3.1-1.24,3.1-3.59V32c0-2.36-1.18-3.6-3.1-3.6S375,29.67,375,32Z"/><path class="cls-2" d="M392.43,22.48h6.33v3h.12a6.69,6.69,0,0,1,5.95-3.41c3.16,0,6.51,2.05,6.51,7.69V53.91H405V32.15c0-2.29-1.12-3.72-3.1-3.72-2.36,0-3.16,1.55-3.16,4.34V53.91h-6.33Z"/><path class="cls-2" d="M422.56,40.58v4.28a2.84,2.84,0,0,0,3.1,3.1c2.42,0,3-1.8,3.1-3.16h6.33a9.68,9.68,0,0,1-2.54,6.7,9.27,9.27,0,0,1-6.89,2.79,9,9,0,0,1-8.24-4.53,13.8,13.8,0,0,1-1.18-6.39V33a13.79,13.79,0,0,1,1.18-6.38,9,9,0,0,1,8.24-4.53c5.83,0,9.43,4.28,9.43,9.79v8.68Zm0-5h6.2V32c0-2.36-1.17-3.6-3.1-3.6s-3.1,1.24-3.1,3.6Z"/><path class="cls-2" d="M451.46,31.28a3.13,3.13,0,0,0-3.23-3.22,3,3,0,0,0-3.1,3.16c0,1.18.31,2.3,2.67,3.23l3.72,1.48c4.71,1.8,6.2,5.15,6.2,8.87a9.32,9.32,0,0,1-9.43,9.49c-5,0-9.17-3.29-9.42-9.49h5.95c.25,1.74,1.06,3.53,3.41,3.53a3.43,3.43,0,0,0,3.54-3.41c0-1.73-.75-2.91-3.17-3.84l-3-1.12c-4-1.48-6.39-4.46-6.39-8.68a9.1,9.1,0,0,1,9.3-9.17c5.15,0,8.87,4,8.93,9.17Z"/></g></g></g></g></svg>